<?xml version="1.0" encoding="UTF-8"?>
<svg width="1094.4" height="148.4" version="1.1" viewBox="0 0 289.56 39.263" xmlns="http://www.w3.org/2000/svg">
 <g stroke-linecap="round">
  <path d="m0 26.279h289.56v12.985h-289.56z" fill="#555656" stroke-width="1.069"/>
  <path d="m24.422-1.9264e-4h79.558v25.467h-79.558z" fill="#2c2e2e" stroke-width=".34824"/>
  <g transform="translate(0 -.00019264)">
   <g stroke-width=".43462">
    <g fill="#a8a8a8">
     <path d="m32.911 20.145v-3.1922h-1.0641v3.1922zm3.1922-3.1922v3.1922h1.0641v-3.1922zm-3.1922 3.1922v1.0641h1.0641v-1.0641zm2.1281 1.0641h1.0641v-1.0641h-1.0641zm-1.0641 1.0641h1.0641v-1.0641h-1.0641z" style="white-space:pre"/>
     <path d="m39.296 18.017h3.1922v-1.0641h-3.1922zm3.1922 0v1.0641h-3.1922v-1.0641h-1.0641v3.1922h1.0641v-1.0641h4.2563v-2.1281zm-3.1922 4.2563h4.2563v-1.0641h-4.2563z" style="white-space:pre"/>
     <path d="m45.68 16.953h-1.0641v5.3204h1.0641v-3.1922h1.0641v-1.0641h-1.0641zm3.1922 0h-2.1281v1.0641h2.1281zm0 1.0641v1.0641h1.0641v-1.0641z" style="white-space:pre"/>
     <path d="m52.065 16.953h-1.0641v5.3204h1.0641v-3.1922h1.0641v-1.0641h-1.0641zm3.1922 0h-2.1281v1.0641h2.1281zm0 1.0641v1.0641h1.0641v-1.0641z" style="white-space:pre"/>
     <path d="m57.385 14.825v1.0641h1.0641v-1.0641zm0 2.1281v5.3204h1.0641v-5.3204z" style="white-space:pre"/>
     <path d="m63.77 14.825v3.1922h-1.0641v1.0641h1.0641v2.1281h-3.1922v1.0641h4.2563v-7.4485zm-1.0641 3.1922v-1.0641h-2.1281v1.0641zm-2.1281 3.1922v-3.1922h-1.0641v3.1922z" style="white-space:pre"/>
     <path d="m66.962 18.017h3.1922v-1.0641h-3.1922zm3.1922 0v1.0641h-3.1922v-1.0641h-1.0641v3.1922h1.0641v-1.0641h4.2563v-2.1281zm-3.1922 4.2563h4.2563v-1.0641h-4.2563z" style="white-space:pre"/>
     <path d="m26.527 18.017h3.1922v-1.0641h-3.1922zm0 3.1922v-3.1922h-1.0641v3.1922zm3.1922-3.1922v3.1922h1.0641v-3.1922zm0 3.1922h-3.1922v1.0641h3.1922z" style="white-space:pre"/>
    </g>
    <g fill="#292929">
     <path d="m27.591 18.017v1.064h2.1281v-1.064zm0 1.064h-1.064v2.1281h1.064zm3.1921 0v3.1926h1.064v-3.1926zm0 3.1926h-3.1921v1.064h3.1921z" style="white-space:pre"/>
     <path d="m32.911 18.017v2.1281h1.064v-2.1281zm4.2566 0v3.1921h1.064v-3.1921zm0 3.1921h-1.0646v1.0646h1.0646zm-1.0646 1.0646h-1.064v1.064h1.064z" style="white-space:pre"/>
     <path d="m40.36 18.017v1.064h2.1281v-1.064zm3.1921 1.064v1.064h-4.2561v1.064h5.3202v-2.1281zm-3.1921 3.1926v1.064h4.2561v-1.064h-1.064z" style="white-space:pre"/>
     <path d="m47.808 18.017v1.064h1.064v-1.064zm0 1.064h-2.1281v4.2566h1.064v-3.1926h1.064zm2.1281 0v1.064h1.064v-1.064z" style="white-space:pre"/>
     <path d="m54.193 18.017v1.064h1.064v-1.064zm0 1.064h-2.1281v4.2566h1.064v-3.1926h1.064zm2.1281 0v1.064h1.064v-1.064z" style="white-space:pre"/>
     <path d="m58.449 15.889v1.0641h1.0641v-1.0641zm0 2.1281v5.3204h1.0641v-5.3204z" style="white-space:pre"/>
     <path d="m64.833 15.889v6.3847h-3.1921v1.064h4.2566v-7.4488zm-3.1921 2.1281v1.064h1.064v-1.064zm0 1.064h-1.064v2.1281h1.064z" style="white-space:pre"/>
     <path d="m68.026 18.017v1.064h2.1281v-1.064zm3.1921 1.064v1.064h-4.2561v1.064h5.3202v-2.1281zm-3.1921 3.1926v1.064h4.2561v-1.064h-1.064z" style="white-space:pre"/>
    </g>
    <g fill="#fcfc00">
     <path d="m29.716 3.2014v-1.0641h-2.1281v1.0641zm-3.1922 0v1.0641h-1.0641v1.0641h1.0641v4.2563h1.0641v-4.2563h2.1281v-1.0641h-2.1281v-1.0641z" style="white-space:pre"/>
     <path d="m31.844 5.3295h3.1922v-1.0641h-3.1922zm0 3.1922v-3.1922h-1.0641v3.1922zm3.1922-3.1922v3.1922h1.0641v-3.1922zm0 3.1922h-3.1922v1.0641h3.1922z" style="white-space:pre"/>
     <path d="m38.229 4.2654h-1.0641v5.3204h1.0641v-3.1922h1.0641v-1.0641h-1.0641zm3.1922 0h-2.1281v1.0641h2.1281zm0 1.0641v1.0641h1.0641v-1.0641z" style="white-space:pre"/>
     <path d="m47.805 4.2654h-3.1922v1.0641h3.1922zm-4.2563 1.0641v3.1922h1.0641v-3.1922zm5.3204 1.0641v-1.0641h-1.0641v1.0641zm0 1.0641h-1.0641v1.0641h1.0641zm-4.2563 2.1281h3.1922v-1.0641h-3.1922z" style="white-space:pre"/>
     <path d="m50.998 5.3295h3.1922v-1.0641h-3.1922zm3.1922 0v1.0641h-3.1922v-1.0641h-1.0641v3.1922h1.0641v-1.0641h4.2563v-2.1281zm-3.1922 4.2563h4.2563v-1.0641h-4.2563z" style="white-space:pre"/>
     <path d="m57.382 3.2014h3.1922v-1.0641h-3.1922zm0 5.3204v-5.3204h-1.0641v5.3204zm3.1922-5.3204v5.3204h1.0641v-5.3204zm0 5.3204h-3.1922v1.0641h3.1922z" style="white-space:pre"/>
     <path d="m63.766 7.4576v-3.1922h-1.0641v3.1922zm3.1922-3.1922v3.1922h1.0641v-3.1922zm-3.1922 3.1922v1.0641h1.0641v-1.0641zm2.1281 1.0641h1.0641v-1.0641h-1.0641zm-1.0641 1.0641h1.0641v-1.0641h-1.0641z" style="white-space:pre"/>
     <path d="m70.151 5.3295h3.1922v-1.0641h-3.1922zm3.1922 0v1.0641h-3.1922v-1.0641h-1.0641v3.1922h1.0641v-1.0641h4.2563v-2.1281zm-3.1922 4.2563h4.2563v-1.0641h-4.2563z" style="white-space:pre"/>
     <path d="m76.535 4.2654h-1.0641v5.3204h1.0641v-3.1922h1.0641v-1.0641h-1.0641zm3.1922 0h-2.1281v1.0641h2.1281zm0 1.0641v1.0641h1.0641v-1.0641z" style="white-space:pre"/>
     <path d="m82.92 4.2654h-1.0641v5.3204h1.0641v-3.1922h1.0641v-1.0641h-1.0641zm3.1922 0h-2.1281v1.0641h2.1281zm0 1.0641v1.0641h1.0641v-1.0641z" style="white-space:pre"/>
     <path d="m88.24 2.1373v1.0641h1.0641v-1.0641zm0 2.1281v5.3204h1.0641v-5.3204z" style="white-space:pre"/>
     <path d="m94.625 2.1373v3.1922h-1.0641v1.0641h1.0641v2.1281h-3.1922v1.0641h4.2563v-7.4485zm-1.0641 3.1922v-1.0641h-2.1281v1.0641zm-2.1281 3.1922v-3.1922h-1.0641v3.1922z" style="white-space:pre"/>
     <path d="m97.817 5.3295h3.1922v-1.0641h-3.1922zm3.1922 0v1.0641h-3.1922v-1.0641h-1.0641v3.1922h1.0641v-1.0641h4.2563v-2.1281zm-3.1922 4.2563h4.2563v-1.0641h-4.2563z" style="white-space:pre"/>
    </g>
    <g fill="#3e3e00">
     <path d="m28.652 3.2011v1.064h2.1281v-1.064h-1.064zm-1.064 2.1286v5.3202h1.064v-4.2561h2.1281v-1.064h-2.1281z" style="white-space:pre"/>
     <path d="m32.908 5.3297v1.064h2.1286v-1.064zm0 1.064h-1.064v2.1281h1.064zm3.1926 0v3.1921h1.064v-3.1921zm0 3.1921h-3.1926v1.064h3.1926z" style="white-space:pre"/>
     <path d="m40.357 5.3297v1.064h1.064v-1.064zm0 1.064h-2.1281v4.2561h1.064v-3.1921h1.064zm2.1281 0v1.064h1.064v-1.064z" style="white-space:pre"/>
     <path d="m45.677 5.3297v1.064h2.1286v-1.064zm0 1.064h-1.064v2.1281h1.064zm3.1926 0v1.064h1.064v-1.064zm0 2.1281v1.064h1.064v-1.064zm0 1.064h-3.1926v1.064h3.1926z" style="white-space:pre"/>
     <path d="m52.062 5.3297v1.064h2.1281v-1.064zm3.1921 1.064v1.064h-4.2561v1.064h5.3202v-2.1281zm-3.1921 3.1921v1.064h4.2561v-1.064h-1.064z" style="white-space:pre"/>
     <path d="m58.446 3.2011v1.064h2.1281v-1.064zm0 1.064h-1.064v4.2566h1.064zm3.1926 0v5.3207h1.064v-5.3207zm0 5.3207h-3.1926v1.064h3.1926z" style="white-space:pre"/>
     <path d="m63.767 5.3297v2.1281h1.064v-2.1281zm4.2561 0v3.1921h1.064v-3.1921zm0 3.1921h-1.064v1.064h1.064zm-1.064 1.064h-1.064v1.064h1.064z" style="white-space:pre"/>
     <path d="m71.215 5.3297v1.064h2.1281v-1.064zm3.1921 1.064v1.064h-4.2561v1.064h5.3207v-2.1281zm-3.1921 3.1921v1.064h4.2566v-1.064h-1.0646z" style="white-space:pre"/>
     <path d="m78.664 5.3297v1.064h1.064v-1.064zm0 1.064h-2.1281v4.2561h1.064v-3.1921h1.064zm2.1281 0v1.064h1.064v-1.064z" style="white-space:pre"/>
     <path d="m85.048 5.3297v1.064h1.064v-1.064zm0 1.064h-2.1281v4.2561h1.064v-3.1921h1.064zm2.1281 0v1.064h1.064v-1.064z" style="white-space:pre"/>
     <path d="m89.304 3.2014v1.0641h1.0641v-1.0641zm0 2.1281v5.3204h1.0641v-5.3204z" style="white-space:pre"/>
     <path d="m95.689 3.2011v6.3847h-3.1921v1.064h4.2561v-7.4488zm-3.1921 2.1286v1.064h1.064v-1.064zm0 1.064h-1.064v2.1281h1.064z" style="white-space:pre"/>
     <path d="m98.881 5.3297v1.064h2.1281v-1.064zm3.1921 1.064v1.064h-4.2561v1.064h5.3202v-2.1281zm-3.1921 3.1921v1.064h4.2561v-1.064h-1.064z" style="white-space:pre"/>
    </g>
   </g>
   <g transform="translate(-2.81e-5,-1.4e-5)" stroke-width=".43461">
    <path d="m27.699 32.852h4.2562v-1.0641h-4.2562zm0 2.1281h2.1281v-1.0641h-2.1281zm4.2562 1.064v-1.064h-1.064v1.064zm-1.064 0h-4.2562v1.0641h4.2562z" fill="#292929" stroke-width=".43461" style="white-space:pre"/>
    <g fill="#a8a8a8">
     <path d="m6.418 28.596v1.064h1.0641v-1.064zm-1.0641 1.064v2.1281h1.0641v-2.1281zm-1.064 3.1922h1.064v-1.064h-1.064zm-1.0641 0v2.1281h1.0641v-2.1281zm-1.0641 3.1922h1.0641v-1.0641h-1.0641z" style="white-space:pre"/>
     <path d="m12.802 28.596v3.1922h-1.064v1.064h1.064v2.1281h-3.1922v1.0641h4.2562v-7.4484zm-1.064 3.1922v-1.0641h-2.1281v1.0641zm-2.1281 3.1922v-3.1922h-1.064v3.1922z" style="white-space:pre"/>
     <path d="m15.994 31.788h4.2562v-1.0641h-4.2562zm-1.064 0v1.064h1.064v-1.064zm1.064 2.1281h3.1922v-1.0641h-3.1922zm4.2562 1.064v-1.064h-1.0641v1.064zm-1.0641 0h-4.2562v1.0641h4.2562z" style="white-space:pre"/>
     <path d="m26.635 31.788h4.2562v-1.0641h-4.2562zm-1.0641 0v1.064h1.0641v-1.064zm1.0641 2.1281h3.1922v-1.0641h-3.1922zm4.2562 1.064v-1.064h-1.064v1.064zm-1.064 0h-4.2562v1.0641h4.2562z" style="white-space:pre"/>
    </g>
    <g fill="#292929">
     <path d="m7.482 29.66v1.064h1.0641v-1.064zm-1.0641 1.064v2.1281h1.0641v-2.1281zm-1.064 3.1922h1.064v-1.064h-1.064zm-1.0641 0v2.1281h1.0641v-2.1281zm-1.0641 3.1922h1.0641v-1.0641h-1.0641z" style="white-space:pre"/>
     <path d="m13.866 29.66v6.3843h-3.1922v1.0641h4.2562v-7.4484zm-2.1281 3.1922v-1.0641h-1.0641v1.0641zm-1.0641 2.1281v-2.1281h-1.064v2.1281z" style="white-space:pre"/>
     <path d="m17.059 32.852h4.2562v-1.0641h-4.2562zm0 2.1281h2.1281v-1.0641h-2.1281zm4.2562 1.064v-1.064h-1.0641v1.064zm-1.0641 0h-4.2562v1.0641h4.2562z" style="white-space:pre"/>
    </g>
    <path d="m36.212 30.724h-3.1922v1.0641h3.1922zm0 1.0641v1.064h-3.1922v1.0641h3.1922v1.064h-3.1922v1.0641h4.2562v-4.2562zm-4.2562 2.1281v1.064h1.064v-1.064z" fill="#a8a8a8" style="white-space:pre"/>
    <path d="m39.404 33.916v-3.1922h-1.0641v3.1922zm3.1922-3.1922v3.1922h1.064v-3.1922zm-3.1922 3.1922v1.0641h1.064v-1.0641zm2.1281 1.0641h1.0641v-1.0641h-1.0641zm-1.0641 1.064h1.0641v-1.064h-1.0641z" fill="#a8a8a8" style="shape-inside:url(#rect1156-0-8-5-1-0-3);white-space:pre"/>
    <path d="m36.212 31.788h-2.1281v1.0641l2.1281-1e-5m0 1.0641h-2.1281v1.0641l2.1281-1e-5m1.0641 1e-5v1.064h-3.1922v1.0641h4.2562v-4.2562h-1.0641v1.064" fill="#292929" style="white-space:pre"/>
    <path d="m40.468 33.916 1e-5 -2.1281h-1.0641v2.1281zm3.1922-2.1281v3.1922h1.064v-3.1922zm-1.0641 4.2562h1.0641v-1.064h-1.0641zm-1.0641 1.0641h1.0641v-1.0641h-1.0641z" fill="#292929" style="shape-inside:url(#rect1156-0-8-5-1-7-8-8);white-space:pre"/>
    <path d="m45.788 31.788h3.1922v-1.0641h-3.1922zm3.1922 0v1.064h-3.1922v-1.064h-1.0641v3.1922h1.0641v-1.064h4.2562v-2.1281zm-3.1922 4.2562h4.2562v-1.0641h-4.2562z" fill="#a8a8a8" style="white-space:pre"/>
    <path d="m46.852 32.852h2.1281v-1.0641h-2.1281zm3.1922 0v1.064h-3.1922v1.0641h4.2562v-2.1281zm-3.1922 4.2562h4.2562v-1.0641h-4.2562z" fill="#292929" style="white-space:pre"/>
   </g>
   <g fill="#7e7e7e" stroke-width=".43462">
    <path d="m59.622 29.66v-1.0641h-2.1281v1.0641zm-3.1922 0v1.0641h-1.0641v1.0641h1.0641v4.2563h1.0641v-4.2563h2.1281v-1.0641h-2.1281v-1.0641z" style="white-space:pre"/>
    <path d="m61.75 31.788h3.1922v-1.0641h-3.1922zm0 3.1922v-3.1922h-1.0641v3.1922zm3.1922-3.1922v3.1922h1.0641v-3.1922zm0 3.1922h-3.1922v1.0641h3.1922z" style="white-space:pre"/>
    <path d="m68.134 30.724h-1.0641v5.3204h1.0641v-3.1922h1.0641v-1.0641h-1.0641zm3.1922 0h-2.1281v1.0641h2.1281zm0 1.0641v1.0641h1.0641v-1.0641z" style="white-space:pre"/>
    <path d="m77.711 30.724h-3.1922v1.0641h3.1922zm-4.2563 1.0641v3.1922h1.0641v-3.1922zm5.3204 1.0641v-1.0641h-1.0641v1.0641zm0 1.0641h-1.0641v1.0641h1.0641zm-4.2563 2.1281h3.1922v-1.0641h-3.1922z" style="white-space:pre"/>
    <path d="m80.903 31.788h3.1922v-1.0641h-3.1922zm3.1922 0v1.0641h-3.1922v-1.0641h-1.0641v3.1922h1.0641v-1.0641h4.2563v-2.1281zm-3.1922 4.2563h4.2563v-1.0641h-4.2563z" style="white-space:pre"/>
    <path d="m87.287 29.66h3.1922v-1.0641h-3.1922zm0 5.3204v-5.3204h-1.0641v5.3204zm3.1922-5.3204v5.3204h1.0641v-5.3204zm0 5.3204h-3.1922v1.0641h3.1922z" style="white-space:pre"/>
    <path d="m93.672 33.916v-3.1922h-1.0641v3.1922zm3.1922-3.1922v3.1922h1.0641v-3.1922zm-3.1922 3.1922v1.0641h1.0641v-1.0641zm2.1281 1.0641h1.0641v-1.0641h-1.0641zm-1.0641 1.0641h1.0641v-1.0641h-1.0641z" style="white-space:pre"/>
    <path d="m100.06 31.788h3.1922v-1.0641h-3.1922zm3.1922 0v1.0641h-3.1922v-1.0641h-1.0641v3.1922h1.0641v-1.0641h4.2563v-2.1281zm-3.1922 4.2563h4.2563v-1.0641h-4.2563z" style="white-space:pre"/>
    <path d="m106.44 30.724h-1.0641v5.3204h1.0641v-3.1922h1.0641v-1.0641h-1.0641zm3.1922 0h-2.1282v1.0641h2.1282zm0 1.0641v1.0641h1.0641v-1.0641z" style="white-space:pre"/>
    <path d="m112.83 30.724h-1.0641v5.3204h1.0641v-3.1922h1.0641v-1.0641h-1.0641zm3.1922 0h-2.1281v1.0641h2.1281zm0 1.0641v1.0641h1.0641v-1.0641z" style="white-space:pre"/>
    <path d="m118.15 28.596v1.0641h1.0641v-1.0641zm0 2.1281v5.3204h1.0641v-5.3204z" style="white-space:pre"/>
    <path d="m124.53 28.596v3.1922h-1.0641v1.0641h1.0641v2.1281h-3.1922v1.0641h4.2563v-7.4485zm-1.0641 3.1922v-1.0641h-2.1281v1.0641zm-2.1281 3.1922v-3.1922h-1.0641v3.1922z" style="white-space:pre"/>
    <path d="m127.72 31.788h3.1922v-1.0641h-3.1922zm3.1922 0v1.0641h-3.1922v-1.0641h-1.0641v3.1922h1.0641v-1.0641h4.2563v-2.1281zm-3.1922 4.2563h4.2563v-1.0641h-4.2563z" style="white-space:pre"/>
   </g>
   <g fill="#292929" stroke-width=".43462">
    <path d="m58.557 29.66v1.064h2.1281v-1.064h-1.064zm-1.064 2.1286v5.3202h1.064v-4.2561h2.1281v-1.064h-2.1281z" style="white-space:pre"/>
    <path d="m62.814 31.788v1.064h2.1286v-1.064zm0 1.064h-1.064v2.1281h1.064zm3.1926 0v3.1921h1.064v-3.1921zm0 3.1921h-3.1926v1.064h3.1926z" style="white-space:pre"/>
    <path d="m70.262 31.788v1.064h1.064v-1.064zm0 1.064h-2.1281v4.2561h1.064v-3.1921h1.064zm2.1281 0v1.064h1.064v-1.064z" style="white-space:pre"/>
    <path d="m75.583 31.788v1.064h2.1286v-1.064zm0 1.064h-1.064v2.1281h1.064zm3.1926 0v1.064h1.064v-1.064zm0 2.1281v1.064h1.064v-1.064zm0 1.064h-3.1926v1.064h3.1926z" style="white-space:pre"/>
    <path d="m81.967 31.788v1.064h2.1281v-1.064zm3.1921 1.064v1.064h-4.2561v1.064h5.3202v-2.1281zm-3.1921 3.1921v1.064h4.2561v-1.064h-1.064z" style="white-space:pre"/>
    <path d="m88.351 29.66v1.064h2.1281v-1.064zm0 1.064h-1.064v4.2567h1.064zm3.1926 0v5.3207h1.064v-5.3207zm0 5.3207h-3.1926v1.064h3.1926z" style="white-space:pre"/>
    <path d="m93.672 31.788v2.1281h1.064v-2.1281zm4.2561 0v3.1921h1.064v-3.1921zm0 3.1921h-1.064v1.064h1.064zm-1.064 1.064h-1.064v1.064h1.064z" style="white-space:pre"/>
    <path d="m101.12 31.788v1.064h2.1281v-1.064zm3.1921 1.064v1.064h-4.2561v1.064h5.3207v-2.1281zm-3.1921 3.1921v1.064h4.2566v-1.064h-1.0646z" style="white-space:pre"/>
    <path d="m108.57 31.788v1.064h1.064v-1.064zm0 1.064h-2.1281v4.2561h1.064v-3.1921h1.064zm2.1281 0v1.064h1.064v-1.064z" style="white-space:pre"/>
    <path d="m114.95 31.788v1.064h1.064v-1.064zm0 1.064h-2.1281v4.2561h1.064v-3.1921h1.064zm2.1281 0v1.064h1.064v-1.064z" style="white-space:pre"/>
    <path d="m119.21 29.66v1.0641h1.0641v-1.0641zm0 2.1281v5.3204h1.0641v-5.3204z" style="white-space:pre"/>
    <path d="m125.59 29.66v6.3847h-3.1921v1.064h4.2561v-7.4488zm-3.1921 2.1286v1.064h1.064v-1.064zm0 1.064h-1.064v2.1281h1.064z" style="white-space:pre"/>
    <path d="m128.79 31.788v1.064h2.1281v-1.064zm3.1921 1.064v1.064h-4.2561v1.064h5.3202v-2.1281zm-3.1921 3.1921v1.064h4.2561v-1.064h-1.064z" style="white-space:pre"/>
   </g>
  </g>
 </g>
</svg>
