<?xml version="1.0" encoding="UTF-8"?>
<svg width="433.77" height="148.4" version="1.1" viewBox="0 0 114.77 39.264" xmlns="http://www.w3.org/2000/svg">
 <g stroke-linecap="round">
  <path d="m0 26.279h114.77v12.985h-114.77z" fill="#555656" stroke-width=".67298"/>
  <path d="m27.699 32.852h4.2562v-1.0641h-4.2562zm0 2.1281h2.1281v-1.0641h-2.1281zm4.2562 1.064v-1.064h-1.064v1.064zm-1.064 0h-4.2562v1.0641h4.2562z" fill="#292929" stroke-width=".43461" style="white-space:pre"/>
  <path d="m24.422 0h66.147v25.467h-66.147z" fill="#2c2e2e" stroke-width=".31754"/>
  <g stroke-width=".43461">
   <g fill="#a8a8a8">
    <path d="m6.418 28.596v1.064h1.0641v-1.064zm-1.0641 1.064v2.1281h1.0641v-2.1281zm-1.064 3.1922h1.064v-1.064h-1.064zm-1.0641 0v2.1281h1.0641v-2.1281zm-1.0641 3.1922h1.0641v-1.0641h-1.0641z" style="white-space:pre"/>
    <path d="m12.802 28.596v3.1922h-1.064v1.064h1.064v2.1281h-3.1922v1.0641h4.2562v-7.4484zm-1.064 3.1922v-1.0641h-2.1281v1.0641zm-2.1281 3.1922v-3.1922h-1.064v3.1922z" style="white-space:pre"/>
    <path d="m15.994 31.788h4.2562v-1.0641h-4.2562zm-1.064 0v1.064h1.064v-1.064zm1.064 2.1281h3.1922v-1.0641h-3.1922zm4.2562 1.064v-1.064h-1.0641v1.064zm-1.0641 0h-4.2562v1.0641h4.2562z" style="white-space:pre"/>
   </g>
   <path d="m26.635 31.788h4.2562v-1.0641h-4.2562zm-1.0641 0v1.064h1.0641v-1.064zm1.0641 2.1281h3.1922v-1.0641h-3.1922zm4.2562 1.064v-1.064h-1.064v1.064zm-1.064 0h-4.2562v1.0641h4.2562z" fill="#7e7e7e" style="white-space:pre"/>
   <g fill="#fcfc00">
    <path d="m26.524 5.3295h4.2562v-1.0641h-4.2562zm-1.0641 0v1.064h1.0641v-1.064zm1.0641 2.1281h3.1922v-1.0641h-3.1922zm4.2562 1.064v-1.064h-1.0641v1.064zm-1.0641 0h-4.2562v1.0641h4.2562z" style="white-space:pre"/>
    <path d="m36.1 4.2654h-3.1922v1.0641h3.1922zm0 1.0641v1.064h-3.1922v1.0641h3.1922v1.064h-3.1922v1.0641h4.2562v-4.2562zm-4.2562 2.1281v1.064h1.064v-1.064z" style="white-space:pre"/>
    <path d="m39.293 7.4576v-3.1922h-1.064v3.1922zm3.1922-3.1922v3.1922h1.0641v-3.1922zm-3.1922 3.1922v1.064h1.0641v-1.064zm2.1281 1.064h1.064v-1.064h-1.064zm-1.0641 1.0641h1.0641v-1.0641h-1.0641z" style="white-space:pre"/>
   </g>
   <path d="m39.295 20.145v-3.1922h-1.0641v3.1922zm3.1922-3.1922v3.1922h1.064v-3.1922zm-3.1922 3.1922v1.0641h1.064v-1.0641zm2.1281 1.0641h1.0641v-1.0641h-1.0641zm-1.0641 1.064h1.0641v-1.064h-1.0641z" fill="#a8a8a8" style="shape-inside:url(#rect1156-0-8-5-1-0-3);white-space:pre"/>
   <path d="m45.677 5.3295h3.1922v-1.0641h-3.1922zm3.1922 0v1.064h-3.1922v-1.064h-1.0641v3.1922h1.0641v-1.064h4.2562v-2.1281zm-3.1922 4.2562h4.2562v-1.0641h-4.2562z" fill="#fcfc00" style="white-space:pre"/>
   <g fill="#3e3e00">
    <path d="m27.588 6.3936h4.2562v-1.0641h-4.2562zm0 2.1281h2.1281v-1.0641l-2.1281 2e-5zm4.2562 1.064v-1.064h-1.0641v1.064zm-1.0641 0h-4.2562v1.0641h4.2562z" style="white-space:pre"/>
    <path d="m36.1 5.3295h-2.1281v1.0641l2.1281-1e-5zm0 2.1281h-2.1281v1.0641l2.1281-1e-5m1.0641 1.0641h-3.1922v1.0641h4.2562v-4.2562h-1.0641" style="white-space:pre"/>
    <path d="m40.357 7.4576v-2.1281h-1.064l-1e-5 2.1281zm3.1922-2.1281v3.1922h1.0641v-3.1922zm-1.064 4.2562h1.064v-1.064h-1.064zm-1.0641 1.0641h1.0641v-1.0641h-1.0641z" style="white-space:pre"/>
   </g>
   <path d="m40.359 20.145 1e-5 -2.1281h-1.0641v2.1281zm3.1922-2.1281v3.1922h1.064v-3.1922zm-1.0641 4.2562h1.0641v-1.064h-1.0641zm-1.0641 1.0641h1.0641v-1.0641h-1.0641z" fill="#292929" style="shape-inside:url(#rect1156-0-8-5-1-7-8-8);white-space:pre"/>
   <path d="m46.741 6.3936h2.1281v-1.0641h-2.1281zm3.1922 0v1.064h-3.1922v1.0641h4.2562v-2.1281zm-3.1922 4.2562h4.2562v-1.0641h-4.2562z" fill="#3e3e00" style="white-space:pre"/>
   <g fill="#a8a8a8">
    <path d="m26.527 18.017h4.2562v-1.0641h-4.2562zm-1.0641 0v1.064h1.0641v-1.064zm1.0641 2.1281h3.1922v-1.0641h-3.1922zm4.2562 1.064v-1.064h-1.0641v1.064zm-1.0641 0h-4.2562v1.0641h4.2562z" style="white-space:pre"/>
    <path d="m36.103 16.953h-3.1922v1.0641h3.1922zm0 1.0641v1.064h-3.1922v1.0641h3.1922v1.064h-3.1922v1.0641h4.2562v-4.2562zm-4.2562 2.1281v1.064h1.064v-1.064z" style="white-space:pre"/>
    <path d="m55.256 16.953h-3.1922v1.0641h3.1922zm-4.2562 1.0641v3.1922h1.064v-3.1922zm5.3203 1.064v-1.064h-1.0641v1.064zm0 1.0641h-1.0641v1.064h1.0641zm-4.2562 2.1281h3.1922v-1.0641h-3.1922z" style="white-space:pre"/>
    <path d="m58.448 18.017h3.1922v-1.0641h-3.1922zm0 3.1922v-3.1922h-1.064v3.1922zm3.1922-3.1922v3.1922h1.0641v-3.1922zm0 3.1922h-3.1922v1.0641h3.1922z" style="white-space:pre"/>
    <path d="m68.025 16.953h-4.2562v5.3203h1.0641v-4.2562h3.1922zm0 1.0641v4.2562h1.064v-4.2562z" style="white-space:pre"/>
    <path d="m74.409 15.889v-1.064h-2.1281v1.064zm-3.1922 0v1.0641h-1.0641v1.0641h1.0641v4.2562h1.064v-4.2562h2.1281v-1.0641h-2.1281v-1.0641z" style="white-space:pre"/>
    <path d="m75.473 14.825v1.064h1.064v-1.064zm0 2.1281v5.3203h1.064v-5.3203z" style="white-space:pre"/>
    <path d="m82.922 16.953h-4.2562v1.0641h3.1922v2.1281h-3.1922v1.064h3.1922v1.0641h1.064zm-4.2562 1.0641h-1.0641v2.1281h1.0641zm3.1922 4.2562h-4.2562v1.0641h4.2562z" style="white-space:pre"/>
    <path d="m85.05 18.017h4.2562v-1.0641h-4.2562zm-1.064 0v1.064h1.064v-1.064zm1.064 2.1281h3.1922v-1.0641h-3.1922zm4.2562 1.064v-1.064h-1.064v1.064zm-1.064 0h-4.2562v1.0641h4.2562z" style="white-space:pre"/>
   </g>
   <g fill="#292929">
    <path d="m27.591 19.081h4.2562v-1.0641h-4.2562zm0 2.1281h2.1281v-1.0641h-2.1281zm4.2562 1.064v-1.064h-1.0641v1.064zm-1.0641 0h-4.2562v1.0641h4.2562z" style="white-space:pre"/>
    <path d="m36.103 18.017h-2.1281v1.0641l2.1281-1e-5m0 1.0641h-2.1281v1.0641l2.1281-1e-5m1.0641 1e-5v1.064h-3.1922v1.0641h4.2562v-4.2562h-1.0641v1.064" style="white-space:pre"/>
    <path d="m55.256 18.017h-2.1281v1.0641h2.1281zm-3.1922 1.0641v2.1281h1.064v-2.1281zm5.3203 1.064v-1.064h-1.0641v1.064zm0 1.0641h-1.0641v1.064h1.0641zm-4.2562 2.1281h3.1922v-1.0641h-3.1922z" style="white-space:pre"/>
    <path d="m59.513 19.081h2.1281v-1.0641h-2.1281zm0 2.1281v-2.1281h-1.064v2.1281zm3.1922-2.1281v3.1922h1.0641v-3.1922zm0 3.1922h-3.1922v1.0641h3.1922z" style="white-space:pre"/>
    <path d="m68.025 18.017h-3.1922v5.3203h1.0641v-4.2562h2.1281zm1.0641 1.0641v4.2562h1.064v-4.2562z" style="white-space:pre"/>
    <path d="m75.473 16.953v-1.064h-2.1281v1.064zm-3.1922 1.0641v5.3203h1.064v-4.2562h2.1281v-1.0641z" style="white-space:pre"/>
    <path d="m76.537 15.889v1.064h1.064v-1.064zm0 2.1281v5.3203h1.064v-5.3203z" style="white-space:pre"/>
    <path d="m82.922 23.338h1.064v-5.3203h-1.0641m-1.064 0h-2.1281v1.0641h2.1281m0 2.1281-2.1281 1e-5v1.064h2.1281m-2.1281-3.1922h-1.0641v1.064h1.0641zm3.1922 4.2562h-4.2562v1.0641h4.2562z" style="white-space:pre"/>
    <path d="m86.114 19.081h4.2562v-1.0641h-4.2562zm0 2.1281h2.1281v-1.0641h-2.1281zm4.2562 1.064v-1.064h-1.064v1.064zm-1.064 0h-4.2562v1.0641h4.2562z" style="white-space:pre"/>
   </g>
   <path d="m45.68 18.017h3.1922v-1.0641h-3.1922zm3.1922 0v1.064h-3.1922v-1.064h-1.0641v3.1922h1.0641v-1.064h4.2562v-2.1281zm-3.1922 4.2562h4.2562v-1.0641h-4.2562z" fill="#a8a8a8" style="white-space:pre"/>
   <g fill="#292929">
    <path d="m46.744 19.081h2.1281v-1.0641h-2.1281zm3.1922 0v1.064h-3.1922v1.0641h4.2562v-2.1281zm-3.1922 4.2562h4.2562v-1.0641h-4.2562z" style="white-space:pre"/>
    <path d="m7.482 29.66v1.064h1.0641v-1.064zm-1.0641 1.064v2.1281h1.0641v-2.1281zm-1.064 3.1922h1.064v-1.064h-1.064zm-1.0641 0v2.1281h1.0641v-2.1281zm-1.0641 3.1922h1.0641v-1.0641h-1.0641z" style="white-space:pre"/>
    <path d="m13.866 29.66v6.3843h-3.1922v1.0641h4.2562v-7.4484zm-2.1281 3.1922v-1.0641h-1.0641v1.0641zm-1.0641 2.1281v-2.1281h-1.064v2.1281z" style="white-space:pre"/>
    <path d="m17.059 32.852h4.2562v-1.0641h-4.2562zm0 2.1281h2.1281v-1.0641h-2.1281zm4.2562 1.064v-1.064h-1.0641v1.064zm-1.0641 0h-4.2562v1.0641h4.2562z" style="white-space:pre"/>
   </g>
   <path d="m36.212 30.724h-3.1922v1.0641h3.1922zm0 1.0641v1.064h-3.1922v1.0641h3.1922v1.064h-3.1922v1.0641h4.2562v-4.2562zm-4.2562 2.1281v1.064h1.064v-1.064z" fill="#7e7e7e" style="white-space:pre"/>
   <path d="m39.404 33.916v-3.1922h-1.0641v3.1922zm3.1922-3.1922v3.1922h1.064v-3.1922zm-3.1922 3.1922v1.0641h1.064v-1.0641zm2.1281 1.0641h1.0641v-1.0641h-1.0641zm-1.0641 1.064h1.0641v-1.064h-1.0641z" fill="#7e7e7e" style="shape-inside:url(#rect1156-0-8-5-1-0-3);white-space:pre"/>
   <path d="m36.212 31.788h-2.1281v1.0641l2.1281-1e-5m0 1.0641h-2.1281v1.0641l2.1281-1e-5m1.0641 1e-5v1.064h-3.1922v1.0641h4.2562v-4.2562h-1.0641v1.064" fill="#292929" style="white-space:pre"/>
   <path d="m40.468 33.916 1e-5 -2.1281h-1.0641v2.1281zm3.1922-2.1281v3.1922h1.064v-3.1922zm-1.0641 4.2562h1.0641v-1.064h-1.0641zm-1.0641 1.0641h1.0641v-1.0641h-1.0641z" fill="#292929" style="shape-inside:url(#rect1156-0-8-5-1-7-8-8);white-space:pre"/>
   <path d="m45.788 31.788h3.1922v-1.0641h-3.1922zm3.1922 0v1.064h-3.1922v-1.064h-1.0641v3.1922h1.0641v-1.064h4.2562v-2.1281zm-3.1922 4.2562h4.2562v-1.0641h-4.2562z" fill="#7e7e7e" style="white-space:pre"/>
   <path d="m46.852 32.852h2.1281v-1.0641h-2.1281zm3.1922 0v1.064h-3.1922v1.0641h4.2562v-2.1281zm-3.1922 4.2562h4.2562v-1.0641h-4.2562z" fill="#292929" style="white-space:pre"/>
  </g>
 </g>
</svg>
