<svg xmlns="http://www.w3.org/2000/svg" width="697.512" height="455.622" viewBox="0 0 184.55 120.55"><path fill="#1a1a1a" d="M29.884 142.05h169.96a6.595 6.595 0 0 1 6.61 6.61v105.97a6.595 6.595 0 0 1-6.61 6.608H29.884a6.595 6.595 0 0 1-6.61-6.609V148.66a6.595 6.595 0 0 1 6.61-6.609z" style="paint-order:markers fill stroke" transform="translate(-22.592 -141.37)"/><path fill="#393939" d="M29.884 142.05a6.595 6.595 0 0 0-6.61 6.609v13.333h183.18v-13.333a6.594 6.594 0 0 0-6.608-6.609h-2.126z" style="paint-order:markers fill stroke" transform="translate(-22.592 -141.37)"/><g fill="#fff" aria-label="[Minecraft installation]/config" style="white-space:pre"><path d="m11.605 13.638-.065.386h-1.326l.992-5.925h1.326l-.065.386h-.748l-.861 5.153zM17.125 12.8h-.845l.717-4.282-2.005 4.282h-.458L13.9 8.555l-.71 4.245h-.658l.786-4.703h1.292l.485 3.16 1.437-3.16h1.378zM19.575 8.892h-.81l.141-.84h.81zm-.655 3.91h-.81l.586-3.503h.81zM22.71 12.8h-.772l.358-2.105q.038-.238.038-.407 0-.193-.11-.324-.107-.134-.327-.134-.352 0-.62.358-.27.355-.38 1.034l-.265 1.578h-.771l.585-3.504h.717l-.138.817q.327-.614.606-.762.28-.151.545-.151.382 0 .661.262.283.258.283.723 0 .183-.07.582zM26.716 11.813q-.483 1.075-1.53 1.075-.69 0-1.085-.424-.393-.424-.393-1.127 0-.895.496-1.512.5-.617 1.282-.617.702 0 1.06.445.362.444.362 1.212 0 .128-.01.276H24.49q-.024.148-.024.262 0 .396.19.637.192.241.544.241.544 0 .827-.65zm-.538-1.171q0-.89-.689-.89-.713 0-.916.89zM30.277 11.76q-.496 1.116-1.488 1.116-.617 0-1.006-.413-.39-.417-.39-1.168 0-.848.48-1.475.478-.627 1.201-.627.548 0 .913.32.369.318.462.903l-.655.128q-.137-.69-.685-.69-.407 0-.662.462-.255.462-.255 1.065 0 .458.193.651.193.19.459.19.516 0 .785-.693zM31.473 12.8H30.7l.586-3.504h.71l-.16.954q.452-1.05 1.214-1.05l.093.003-.1.861q-.114-.006-.173-.006-.286 0-.54.151-.252.152-.397.41-.14.255-.237.84zM36.1 12.8h-.761q-.007-.093-.007-.152 0-.251.062-.603-.172.393-.496.62-.324.224-.713.224-.469 0-.765-.29-.293-.292-.293-.72 0-.588.524-.936.527-.348 1.647-.348.144 0 .337.014.024-.159.024-.252 0-.282-.196-.427-.193-.145-.482-.145-.555 0-.81.486l-.689-.217q.434-.854 1.533-.854.655 0 1.034.296.378.296.378.789 0 .21-.165 1.11-.176.947-.176 1.201 0 .093.014.204zm-.534-1.788q-.899.048-1.25.237-.352.19-.352.555 0 .21.142.345.14.13.385.13.352 0 .651-.306.3-.31.424-.961zM37.85 12.8h-.773l.48-2.863h-.48l.107-.64h.479q.138-.724.482-1.045.348-.32.958-.32.317 0 .493.045l-.07.644q-.165-.041-.354-.041-.665 0-.727.716h.755l-.11.641h-.762zM41.016 12.808q-.348.051-.493.051-.485 0-.713-.217-.224-.22-.224-.534 0-.162.08-.63l.265-1.55h-.52l.106-.63h.528l.21-.945.702-.048-.165.992h.755l-.104.63h-.758l-.261 1.561q-.049.29-.049.372 0 .334.496.334.104 0 .252-.024zM44.868 8.892h-.81l.142-.84h.81zm-.654 3.91h-.81L43.99 9.3h.81zM48.001 12.8h-.772l.359-2.105q.037-.238.037-.407 0-.193-.11-.324-.107-.134-.327-.134-.351 0-.62.358-.269.355-.38 1.034l-.264 1.578h-.772l.586-3.504h.716l-.138.817q.328-.614.607-.762.279-.151.544-.151.382 0 .661.262.283.258.283.723 0 .183-.069.582zM49.374 11.77q.203.524.83.524.314 0 .493-.127.183-.131.183-.331 0-.148-.124-.234-.12-.086-.414-.17-.472-.13-.7-.24t-.382-.338q-.155-.227-.155-.52 0-.458.348-.796.348-.34.982-.34 1.03 0 1.447.826l-.665.213q-.23-.458-.761-.458-.238 0-.403.11t-.165.297q0 .13.079.217.082.086.327.155.558.165.827.29.272.12.427.347.159.224.159.517 0 .496-.383.83-.379.334-1.126.334-1.196 0-1.561-.926zM53.856 12.808q-.348.051-.492.051-.486 0-.714-.217-.224-.22-.224-.534 0-.162.08-.63l.265-1.55h-.52l.107-.63h.527l.21-.945.703-.048-.166.992h.755l-.104.63h-.758l-.261 1.561q-.049.29-.049.372 0 .334.496.334.104 0 .252-.024zM57.386 12.8h-.762q-.007-.093-.007-.152 0-.251.062-.603-.172.393-.496.62-.324.224-.713.224-.468 0-.765-.29-.292-.292-.292-.72 0-.588.523-.936.527-.348 1.647-.348.145 0 .338.014.024-.159.024-.252 0-.282-.197-.427-.193-.145-.482-.145-.555 0-.81.486l-.689-.217Q55.201 9.2 56.3 9.2q.655 0 1.034.296t.379.789q0 .21-.165 1.11-.176.947-.176 1.201 0 .093.014.204zm-.534-1.788q-.9.048-1.25.237-.352.19-.352.555 0 .21.141.345.141.13.386.13.351 0 .65-.306.3-.31.425-.961zM59.068 12.8h-.81l.786-4.703h.81zM60.817 12.8h-.81l.786-4.703h.81zM64.667 12.8h-.761q-.007-.093-.007-.152 0-.251.062-.603-.173.393-.496.62-.324.224-.714.224-.468 0-.764-.29-.293-.292-.293-.72 0-.588.523-.936.528-.348 1.647-.348.145 0 .338.014.024-.159.024-.252 0-.282-.196-.427-.193-.145-.483-.145-.554 0-.81.486l-.688-.217q.434-.854 1.533-.854.654 0 1.033.296.38.296.38.789 0 .21-.166 1.11-.176.947-.176 1.201 0 .093.014.204zm-.534-1.788q-.9.048-1.25.237-.352.19-.352.555 0 .21.141.345.141.13.386.13.351 0 .651-.306.3-.31.424-.961zM67.178 12.808q-.348.051-.493.051-.486 0-.713-.217-.224-.22-.224-.534 0-.162.08-.63l.265-1.55h-.52l.106-.63h.527l.21-.945.703-.048-.165.992h.754l-.103.63h-.758l-.262 1.561q-.048.29-.048.372 0 .334.496.334.103 0 .252-.024zM69.265 8.892h-.81l.142-.84h.81zm-.654 3.91h-.81l.586-3.503h.81zM71.115 12.89q-.39 0-.755-.173-.362-.172-.554-.544-.19-.375-.19-.892 0-.837.493-1.447.492-.613 1.288-.613.655 0 1.047.44.393.438.393 1.179 0 .761-.468 1.405t-1.254.645zm.007-.63q.468 0 .689-.483.22-.486.22-1.016 0-.91-.703-.91-.492 0-.706.52t-.214 1.037q0 .438.207.645.207.206.507.206zM76.105 12.8h-.772l.358-2.105q.038-.238.038-.407 0-.193-.11-.324-.107-.134-.327-.134-.352 0-.62.358-.27.355-.38 1.034l-.265 1.578h-.771l.585-3.504h.717l-.138.817q.327-.614.606-.762.28-.151.545-.151.382 0 .661.262.283.258.283.723 0 .183-.07.582zM77.56 8.484l.065-.385h1.327l-.993 5.925h-1.326l.066-.386h.75l.865-5.153zM78.616 14.025h-.517l3.658-5.926h.53zM85.13 11.76q-.497 1.116-1.489 1.116-.616 0-1.006-.413-.389-.417-.389-1.168 0-.848.479-1.475.479-.627 1.202-.627.548 0 .913.32.369.318.462.903l-.655.128q-.138-.69-.685-.69-.407 0-.662.462-.255.462-.255 1.065 0 .458.193.651.193.19.458.19.517 0 .786-.693zM87.117 12.89q-.39 0-.755-.173-.362-.172-.555-.544-.19-.375-.19-.892 0-.837.494-1.447.492-.613 1.288-.613.655 0 1.047.44.393.438.393 1.179 0 .761-.469 1.405-.468.645-1.254.645zm.006-.63q.469 0 .69-.483.22-.486.22-1.016 0-.91-.703-.91-.493 0-.706.52t-.214 1.037q0 .438.207.645.207.206.506.206zM92.106 12.8h-.771l.358-2.105q.038-.238.038-.407 0-.193-.11-.324-.107-.134-.328-.134-.35 0-.62.358-.268.355-.379 1.034L90.03 12.8h-.772l.586-3.504h.717l-.138.817q.327-.614.606-.762.28-.151.544-.151.383 0 .662.262.282.258.282.723 0 .183-.068.582zM93.924 12.8h-.772l.48-2.863h-.48l.107-.64h.48q.137-.724.481-1.045.348-.32.958-.32.317 0 .493.045l-.07.644q-.164-.041-.354-.041-.665 0-.727.716h.755l-.11.641h-.762zM96.787 8.892h-.81l.142-.84h.81zm-.655 3.91h-.81l.586-3.503h.81zM97.356 12.469q-.297-.203-.297-.54 0-.26.135-.452.138-.197.554-.403-.396-.286-.396-.72 0-.538.414-.84.417-.304 1.15-.304.259 0 .434.052.17-.514.41-.693.242-.179.62-.179.104 0 .235.017l-.007.6q-.186-.017-.258-.017-.186 0-.37.062-.182.062-.282.337.538.269.538.834 0 .492-.386.813-.386.32-1.102.32-.304 0-.683-.1-.313.159-.313.428 0 .148.11.234.11.082.452.082h.416q.61 0 .893.104.286.1.444.324.162.22.162.475 0 .434-.42.789-.417.358-1.464.358-1.547 0-1.547-.823 0-.283.144-.444.145-.166.414-.314zm1.388-1.574q.334 0 .52-.18.186-.182.186-.489 0-.52-.568-.52-.338 0-.53.183-.194.179-.194.475 0 .53.586.53zm-1.04 1.75q-.228.186-.228.368 0 .231.255.38.255.15.765.15.989 0 .989-.53 0-.206-.155-.255-.155-.051-.79-.051-.66 0-.836-.062z"/></g><path fill="#fff" d="M29.884 141.37a7.291 7.291 0 0 0-7.293 7.291v105.97a7.293 7.293 0 0 0 7.293 7.293h169.96a7.293 7.293 0 0 0 7.293-7.293v-105.97a7.291 7.291 0 0 0-7.293-7.291zm0 1.365h169.96a5.899 5.899 0 0 1 5.928 5.926v105.97a5.9 5.9 0 0 1-5.928 5.928H29.884a5.9 5.9 0 0 1-5.928-5.928v-105.97a5.899 5.899 0 0 1 5.928-5.926z" color="#000" style="-inkscape-stroke:none;paint-order:markers fill stroke" transform="translate(-22.592 -141.37)"/><path fill="#ffa000" d="M17.37 29.576h-3.81l-.847-.847h-2.117a.85.85 0 0 0-.846.847v1.693h8.466v-.846a.85.85 0 0 0-.846-.847z"/><path fill="#ffca28" d="M17.37 29.576h-6.774a.85.85 0 0 0-.846.847v4.233a.85.85 0 0 0 .846.847h6.774a.85.85 0 0 0 .846-.847v-4.233a.85.85 0 0 0-.846-.847z"/><g fill="#fff" aria-label="defaultsettings" style="white-space:pre"><path d="M32.602 34.378h-.704v-.674q-.291.744-.986.744-.615 0-.942-.513-.328-.513-.328-1.273 0-.708.341-1.234.34-.526.97-.526.644 0 .895.589v-1.627h.755zm-.754-1.97q0-.408-.195-.633-.192-.228-.5-.228-.333 0-.522.291-.188.291-.188.87 0 1.118.7 1.118.279 0 .49-.238.215-.242.215-.615zM35.627 33.314l.682.092q-.133.453-.516.748-.384.294-.963.294-.694 0-1.118-.466-.423-.467-.423-1.264 0-.757.427-1.253.426-.496 1.157-.496.715 0 1.105.49t.39 1.256l-.003.086h-2.292q0 .34.063.546.066.205.258.357t.48.152q.558 0 .753-.542zm-.046-1q-.003-.36-.218-.588-.212-.228-.526-.228-.311 0-.52.215-.208.212-.244.602zM37.9 34.378h-.727v-2.755h-.496v-.585h.496v-.166q0-.489.238-.787t.963-.297q.105 0 .267.006v.592q-.142-.01-.195-.01-.278 0-.39.076-.112.073-.136.176-.02.099-.02.41h.741v.585h-.74zM42.054 34.378h-.718q-.096-.304-.116-.674-.3.744-1.131.744-.5 0-.804-.291-.3-.295-.3-.738 0-1.15 2.02-1.15.08 0 .215.003v-.252q0-.52-.708-.52-.688 0-.78.52l-.642-.096q.053-.416.43-.684.377-.272 1.092-.272.386 0 .631.067.245.062.414.218.168.152.231.334.066.179.066.608v1.509q0 .327.1.674zm-.834-1.7q-1.462 0-1.462.698 0 .209.146.357.149.146.446.146.43 0 .649-.271.221-.275.221-.622zM45.605 34.378h-.7v-.72q-.285.79-1.056.79-.456 0-.724-.281-.268-.285-.268-.79v-2.34h.77v2.177q0 .36.16.473t.31.112q.245 0 .5-.218.254-.221.254-.94v-1.603h.754zM47.263 34.378h-.754v-4.514h.754zM49.718 33.79v.589q-.337.072-.522.072-.305 0-.523-.119-.218-.122-.32-.33-.1-.212-.1-.649v-1.73h-.417v-.585h.46l.07-.87.618-.056v.926h.671v.586h-.671v1.63q0 .314.112.43.116.112.434.112.089 0 .188-.006zM49.945 33.61l.707-.136q.162.407.715.407.7 0 .7-.413 0-.133-.108-.219-.11-.085-.258-.115l-.609-.116q-1.012-.195-1.012-.989 0-.443.321-.75.32-.312.956-.312 1.058 0 1.293.778l-.671.135q-.106-.377-.602-.377-.602 0-.602.377 0 .262.486.36l.718.15q.836.172.836.959 0 .552-.43.827-.43.27-1.022.27-.512 0-.906-.204-.393-.209-.512-.632zM55.552 33.314l.681.092q-.132.453-.516.748-.384.294-.962.294-.695 0-1.118-.466-.424-.467-.424-1.264 0-.757.427-1.253.427-.496 1.158-.496.714 0 1.104.49t.39 1.256l-.003.086h-2.292q0 .34.063.546.066.205.258.357t.48.152q.559 0 .754-.542zm-.047-1q-.003-.36-.218-.588-.211-.228-.526-.228-.31 0-.519.215-.208.212-.245.602zM58.488 33.79v.589q-.338.072-.523.072-.304 0-.523-.119-.218-.122-.32-.33-.1-.212-.1-.649v-1.73h-.416v-.585h.46l.069-.87.618-.056v.926h.672v.586h-.672v1.63q0 .314.113.43.116.112.433.112.09 0 .189-.006zM60.672 33.79v.589q-.337.072-.523.072-.304 0-.522-.119-.218-.122-.32-.33-.1-.212-.1-.649v-1.73h-.417v-.585h.46l.07-.87.618-.056v.926h.671v.586h-.671v1.63q0 .314.112.43.116.112.434.112.089 0 .188-.006zM62.056 30.647h-.754v-.784h.754zm0 3.73h-.754v-3.34h.754zM65.729 34.378h-.754v-2.087q0-.33-.152-.496-.152-.168-.367-.168-.295 0-.516.258-.222.258-.222.777v1.716h-.754v-3.34h.688v.774q.36-.843 1.012-.843.44 0 .75.277.315.278.315.976zM69.676 30.399v.579h-.231q-.152 0-.268.036-.112.036-.222.235.397.324.397.72 0 .444-.373.735-.37.291-.983.291-.264 0-.618-.086-.232.106-.232.328 0 .122.113.225.112.102.34.102h.993q.509 0 .797.265.29.261.29.651 0 .473-.44.784-.436.31-1.296.31-1.617 0-1.617-.902 0-.446.486-.678-.31-.265-.31-.552 0-.437.532-.695-.463-.28-.463-.774 0-.416.34-.71.341-.295 1.036-.295.317 0 .645.07.152-.639.803-.639zm-1.713 2.15q.615 0 .615-.58 0-.22-.155-.373-.152-.152-.447-.152-.297 0-.463.159-.162.159-.162.397 0 .244.162.397.163.152.45.152zm-.827 1.647q-.162.149-.162.287 0 .229.272.4.27.176.863.176.87 0 .87-.447 0-.165-.153-.248-.152-.086-.347-.086h-.8q-.228 0-.543-.082zM69.734 33.61l.707-.136q.162.407.715.407.701 0 .701-.413 0-.133-.11-.219-.108-.085-.257-.115l-.609-.116q-1.012-.195-1.012-.989 0-.443.321-.75.32-.312.956-.312 1.058 0 1.293.778l-.671.135q-.106-.377-.602-.377-.602 0-.602.377 0 .262.486.36l.718.15q.836.172.836.959 0 .552-.43.827-.43.27-1.022.27-.512 0-.906-.204-.393-.209-.512-.632z"/></g><g fill="#fff" aria-label="defaultsettings.json" style="white-space:pre"><path d="M32.602 51.948h-.704v-.674q-.291.744-.986.744-.615 0-.942-.513-.328-.513-.328-1.273 0-.708.341-1.234.34-.526.97-.526.644 0 .895.589v-1.627h.755zm-.754-1.97q0-.408-.195-.633-.192-.228-.5-.228-.333 0-.522.291-.188.291-.188.87 0 1.118.7 1.118.279 0 .49-.238.215-.242.215-.615zM35.627 50.884l.682.092q-.133.453-.516.748-.384.294-.963.294-.694 0-1.118-.466-.423-.467-.423-1.264 0-.757.427-1.253.426-.496 1.157-.496.715 0 1.105.49t.39 1.256l-.003.086h-2.292q0 .34.063.546.066.205.258.357t.48.152q.558 0 .753-.542zm-.046-1q-.003-.36-.218-.588-.212-.228-.526-.228-.311 0-.52.215-.208.212-.244.602zM37.9 51.948h-.727v-2.755h-.496v-.585h.496v-.166q0-.489.238-.787t.963-.297q.105 0 .267.006v.592q-.142-.01-.195-.01-.278 0-.39.076-.112.073-.136.176-.02.099-.02.41h.741v.585h-.74zM42.054 51.948h-.718q-.096-.304-.116-.674-.3.744-1.131.744-.5 0-.804-.291-.3-.295-.3-.738 0-1.15 2.02-1.15.08 0 .215.003v-.252q0-.52-.708-.52-.688 0-.78.52l-.642-.096q.053-.416.43-.684.377-.272 1.092-.272.386 0 .631.067.245.062.414.218.168.152.231.334.066.179.066.608v1.509q0 .327.1.674zm-.834-1.7q-1.462 0-1.462.698 0 .209.146.357.149.146.446.146.43 0 .649-.271.221-.275.221-.622zM45.605 51.948h-.7v-.72q-.285.79-1.056.79-.456 0-.724-.281-.268-.285-.268-.79v-2.34h.77v2.177q0 .36.16.473t.31.112q.245 0 .5-.218.254-.221.254-.94v-1.603h.754zM47.263 51.948h-.754v-4.514h.754zM49.718 51.36v.589q-.337.072-.522.072-.305 0-.523-.119-.218-.122-.32-.33-.1-.212-.1-.649v-1.73h-.417v-.585h.46l.07-.87.618-.056v.926h.671v.586h-.671v1.63q0 .314.112.43.116.112.434.112.089 0 .188-.006zM49.945 51.18l.707-.136q.162.407.715.407.7 0 .7-.413 0-.133-.108-.219-.11-.085-.258-.115l-.609-.116q-1.012-.195-1.012-.989 0-.443.321-.75.32-.312.956-.312 1.058 0 1.293.778l-.671.135q-.106-.377-.602-.377-.602 0-.602.377 0 .262.486.36l.718.15q.836.172.836.959 0 .552-.43.827-.43.27-1.022.27-.512 0-.906-.204-.393-.209-.512-.632zM55.552 50.884l.681.092q-.132.453-.516.748-.384.294-.962.294-.695 0-1.118-.466-.424-.467-.424-1.264 0-.757.427-1.253.427-.496 1.158-.496.714 0 1.104.49t.39 1.256l-.003.086h-2.292q0 .34.063.546.066.205.258.357t.48.152q.559 0 .754-.542zm-.047-1q-.003-.36-.218-.588-.211-.228-.526-.228-.31 0-.519.215-.208.212-.245.602zM58.488 51.36v.589q-.338.072-.523.072-.304 0-.523-.119-.218-.122-.32-.33-.1-.212-.1-.649v-1.73h-.416v-.585h.46l.069-.87.618-.056v.926h.672v.586h-.672v1.63q0 .314.113.43.116.112.433.112.09 0 .189-.006zM60.672 51.36v.589q-.337.072-.523.072-.304 0-.522-.119-.218-.122-.32-.33-.1-.212-.1-.649v-1.73h-.417v-.585h.46l.07-.87.618-.056v.926h.671v.586h-.671v1.63q0 .314.112.43.116.112.434.112.089 0 .188-.006zM62.056 48.217h-.754v-.784h.754zm0 3.73h-.754v-3.34h.754zM65.729 51.948h-.754v-2.087q0-.33-.152-.496-.152-.168-.367-.168-.295 0-.516.258-.222.258-.222.777v1.716h-.754v-3.34h.688v.774q.36-.843 1.012-.843.44 0 .75.277.315.278.315.976zM69.676 47.969v.579h-.231q-.152 0-.268.036-.112.036-.222.235.397.324.397.72 0 .444-.373.735-.37.291-.983.291-.264 0-.618-.086-.232.106-.232.328 0 .122.113.225.112.102.34.102h.993q.509 0 .797.265.29.261.29.651 0 .473-.44.784-.436.31-1.296.31-1.617 0-1.617-.902 0-.446.486-.678-.31-.265-.31-.552 0-.437.532-.695-.463-.28-.463-.774 0-.416.34-.71.341-.295 1.036-.295.317 0 .645.07.152-.639.803-.639zm-1.713 2.15q.615 0 .615-.58 0-.22-.155-.373-.152-.152-.447-.152-.297 0-.463.159-.162.159-.162.397 0 .244.162.397.163.152.45.152zm-.827 1.647q-.162.149-.162.287 0 .229.272.4.27.176.863.176.87 0 .87-.447 0-.165-.153-.248-.152-.086-.347-.086h-.8q-.228 0-.543-.082zM69.734 51.18l.707-.136q.162.407.715.407.701 0 .701-.413 0-.133-.11-.219-.108-.085-.257-.115l-.609-.116q-1.012-.195-1.012-.989 0-.443.321-.75.32-.312.956-.312 1.058 0 1.293.778l-.671.135q-.106-.377-.602-.377-.602 0-.602.377 0 .262.486.36l.718.15q.836.172.836.959 0 .552-.43.827-.43.27-1.022.27-.512 0-.906-.204-.393-.209-.512-.632zM73.986 51.08v.867h-.817v-.867zM75.597 48.217h-.754v-.784h.754zm0 .39v3.287q0 1.25-1.148 1.25-.175 0-.387-.04v-.638q.143.017.242.017.314 0 .426-.12t.113-.469v-3.287zM76.096 51.18l.708-.136q.162.407.715.407.7 0 .7-.413 0-.133-.108-.219-.11-.085-.258-.115l-.609-.116q-1.012-.195-1.012-.989 0-.443.32-.75.322-.312.957-.312 1.058 0 1.293.778l-.672.135q-.105-.377-.601-.377-.602 0-.602.377 0 .262.486.36l.717.15q.837.172.837.959 0 .552-.43.827-.43.27-1.022.27-.512 0-.906-.204-.393-.209-.513-.632zM80.887 52.016q-.741 0-1.132-.532-.39-.533-.39-1.22 0-.742.43-1.234.433-.493 1.141-.493.672 0 1.101.48.434.479.434 1.246 0 .79-.45 1.274-.447.48-1.135.48zm.026-.622q.76 0 .76-1.134 0-.513-.181-.807-.182-.298-.56-.298-.39 0-.578.308-.188.304-.188.81 0 .546.198.834.202.287.549.287zM85.926 51.948h-.754v-2.087q0-.33-.152-.496-.152-.168-.367-.168-.294 0-.516.258-.221.258-.221.777v1.716h-.755v-3.34h.688v.774q.36-.843 1.012-.843.44 0 .751.277.314.278.314.976z"/></g><path fill="#e2e5e7" d="M11.297 45.396a.539.539 0 0 0-.537.537v7.522c0 .296.242.537.537.537h5.373a.539.539 0 0 0 .537-.537v-5.91l-2.149-2.149z"/><path fill="#b0b7bd" d="M15.595 47.545h1.612l-2.149-2.149v1.612c0 .295.242.537.537.537z"/><path fill="#cad1d8" d="M17.207 47.545v1.612l-1.612-1.612z"/><g fill="#fff" aria-label="fml.toml" style="white-space:pre"><path d="M30.7 69.528h-.728v-2.755h-.496v-.585h.496v-.166q0-.489.238-.787t.963-.297q.105 0 .267.006v.592q-.142-.01-.195-.01-.278 0-.39.076-.112.073-.136.176-.02.099-.02.41h.741v.585h-.74zM36.984 69.528h-.79v-2.08q0-.648-.576-.648-.334 0-.536.245-.198.244-.198.73v1.753h-.8v-2.08q0-.658-.54-.658-.327 0-.552.264-.222.265-.222.721v1.753h-.777v-3.34h.731v.711q.357-.78 1.115-.78.737 0 .959.78.403-.78 1.114-.78.483 0 .778.3.294.301.294.748zM38.641 69.528h-.754v-4.514h.754zM40.318 68.66v.867H39.5v-.867zM42.725 68.94v.589q-.338.072-.523.072-.304 0-.523-.119-.218-.122-.32-.33-.1-.212-.1-.649v-1.73h-.416v-.585h.46l.069-.87.618-.056v.926h.672v.586h-.672v1.63q0 .314.113.43.116.112.433.112.09 0 .189-.006zM44.545 69.596q-.74 0-1.131-.532-.39-.533-.39-1.22 0-.742.43-1.234.433-.493 1.14-.493.672 0 1.102.48.433.479.433 1.246 0 .79-.45 1.274-.446.48-1.134.48zm.026-.622q.761 0 .761-1.134 0-.513-.182-.807-.182-.298-.559-.298-.39 0-.579.308-.188.304-.188.81 0 .546.198.834.202.287.55.287zM51.807 69.528h-.79v-2.08q0-.648-.576-.648-.334 0-.535.245-.199.244-.199.73v1.753h-.8v-2.08q0-.658-.54-.658-.327 0-.552.264-.221.265-.221.721v1.753h-.777v-3.34h.73v.711q.358-.78 1.115-.78.738 0 .96.78.403-.78 1.114-.78.483 0 .777.3.294.301.294.748zM53.465 69.528h-.754v-4.514h.754z"/></g><path fill="#e2e5e7" d="M11.297 62.966a.539.539 0 0 0-.537.537v7.522c0 .296.242.537.537.537h5.373a.539.539 0 0 0 .537-.537v-5.91l-2.15-2.149z"/><path fill="#b0b7bd" d="M15.595 65.116h1.612l-2.15-2.15v1.613c0 .295.242.537.538.537z"/><path fill="#cad1d8" d="m17.207 66.727-1.612-1.612h1.612z"/><path fill="#e2e5e7" d="M11.297 80.546a.539.539 0 0 0-.537.537v7.522c0 .296.242.537.537.537h5.373a.539.539 0 0 0 .537-.537v-5.91l-2.15-2.149z"/><g fill="#fff" aria-label="forge-client.toml" style="white-space:pre"><path d="M30.7 87.108h-.728v-2.755h-.496v-.585h.496v-.166q0-.489.238-.787t.963-.297q.105 0 .267.006v.592q-.142-.01-.195-.01-.278 0-.39.076-.112.073-.136.176-.02.099-.02.41h.741v.585h-.74zM33.238 87.176q-.741 0-1.132-.532-.39-.533-.39-1.22 0-.742.43-1.234.433-.493 1.141-.493.671 0 1.101.48.434.479.434 1.246 0 .79-.45 1.274-.447.48-1.135.48zm.026-.622q.76 0 .76-1.134 0-.513-.181-.807-.182-.298-.56-.298-.39 0-.578.308-.188.304-.188.81 0 .546.198.834.202.287.549.287zM36.267 87.108h-.755v-3.34h.682v.797q.145-.466.4-.681.255-.215.523-.215.036 0 .099.003v.81q-.576 0-.764.367-.185.368-.185.712zM40.805 83.129v.579h-.232q-.152 0-.268.036-.112.036-.221.235.397.324.397.72 0 .444-.374.735-.37.291-.982.291-.265 0-.619-.086-.231.106-.231.328 0 .122.112.225.112.102.34.102h.993q.51 0 .797.265.291.261.291.651 0 .473-.44.784-.436.31-1.296.31-1.618 0-1.618-.902 0-.446.487-.678-.311-.265-.311-.552 0-.437.532-.695-.463-.28-.463-.774 0-.416.34-.71.341-.295 1.036-.295.317 0 .645.07.152-.639.804-.639zm-1.714 2.15q.616 0 .616-.58 0-.22-.156-.373-.152-.152-.446-.152-.298 0-.463.159-.162.159-.162.397 0 .244.162.397.162.152.45.152zm-.826 1.647q-.162.149-.162.287 0 .229.27.4.272.176.864.176.87 0 .87-.447 0-.165-.152-.248-.152-.086-.348-.086h-.8q-.228 0-.542-.082zM43.39 86.044l.68.092q-.132.453-.515.748-.384.294-.963.294-.694 0-1.118-.466-.423-.467-.423-1.264 0-.757.427-1.253.426-.496 1.157-.496.715 0 1.105.49t.39 1.256l-.003.086h-2.292q0 .34.063.546.066.205.258.357t.48.152q.558 0 .753-.542zm-.047-1q-.003-.36-.218-.588-.212-.228-.526-.228-.311 0-.52.215-.208.212-.244.602zM46.01 85.08v.619h-1.66v-.618zM48.378 85.88l.649.067q-.126.628-.487.93-.36.3-.87.3-.69 0-1.064-.503-.37-.506-.37-1.237 0-.754.406-1.246.407-.493 1.085-.493 1.091 0 1.3 1.15l-.649.09q-.086-.622-.612-.622-.383 0-.559.338-.172.334-.172.81 0 .506.18.78.181.275.505.275.496 0 .658-.638zM50.355 87.108h-.754v-4.514h.754zM52.013 83.377h-.754v-.784h.754zm0 3.73h-.754v-3.34h.754zM55.042 86.044l.681.092q-.132.453-.516.748-.384.294-.962.294-.695 0-1.118-.466-.424-.467-.424-1.264 0-.757.427-1.253.427-.496 1.158-.496.714 0 1.104.49t.39 1.256l-.003.086h-2.292q0 .34.063.546.066.205.258.357t.48.152q.559 0 .754-.542zm-.047-1q-.003-.36-.218-.588-.212-.228-.526-.228-.31 0-.52.215-.207.212-.244.602zM59.235 87.108h-.754v-2.087q0-.33-.152-.496-.153-.168-.368-.168-.294 0-.515.258-.222.258-.222.777v1.716h-.754v-3.34h.688v.774q.36-.843 1.012-.843.44 0 .75.277.315.278.315.976zM61.686 86.52v.589q-.337.072-.523.072-.304 0-.522-.119-.218-.122-.321-.33-.1-.212-.1-.649v-1.73h-.416v-.585h.46l.07-.87.618-.056v.926h.671v.586h-.671v1.63q0 .314.112.43.116.112.433.112.09 0 .189-.006zM63.091 86.24v.867h-.816v-.867zM65.5 86.52v.589q-.337.072-.522.072-.305 0-.523-.119-.218-.122-.32-.33-.1-.212-.1-.649v-1.73h-.417v-.585h.46l.07-.87.618-.056v.926h.671v.586h-.671v1.63q0 .314.112.43.116.112.434.112.089 0 .188-.006zM67.318 87.176q-.74 0-1.13-.532-.39-.533-.39-1.22 0-.742.429-1.234.433-.493 1.141-.493.671 0 1.101.48.434.479.434 1.246 0 .79-.45 1.274-.447.48-1.135.48zm.027-.622q.76 0 .76-1.134 0-.513-.181-.807-.182-.298-.56-.298-.39 0-.578.308-.188.304-.188.81 0 .546.198.834.202.287.549.287zM74.58 87.108h-.79v-2.08q0-.648-.575-.648-.334 0-.536.245-.198.244-.198.73v1.753h-.8v-2.08q0-.658-.54-.658-.327 0-.552.264-.222.265-.222.721v1.753h-.777v-3.34h.731v.711q.357-.78 1.115-.78.737 0 .959.78.403-.78 1.114-.78.483 0 .778.3.294.301.294.748zM76.238 87.108h-.754v-4.514h.754z"/></g><path fill="#b0b7bd" d="M15.595 82.696h1.612l-2.15-2.15v1.613c0 .295.242.537.538.537z"/><path fill="#cad1d8" d="M17.207 82.695v1.612l-1.612-1.612z"/><path fill="#e2e5e7" d="M11.297 98.126a.539.539 0 0 0-.537.537v7.522c0 .296.242.537.537.537h5.373a.539.539 0 0 0 .537-.537v-5.91l-2.15-2.149z"/><g fill="#fff" aria-label="forge-common.toml" style="white-space:pre"><path d="M30.7 104.678h-.728v-2.755h-.496v-.585h.496v-.166q0-.489.238-.787t.963-.297q.105 0 .267.006v.592q-.142-.01-.195-.01-.278 0-.39.076-.112.073-.136.176-.02.099-.02.41h.741v.585h-.74zM33.238 104.746q-.741 0-1.132-.532-.39-.533-.39-1.22 0-.742.43-1.234.433-.493 1.141-.493.671 0 1.101.48.434.479.434 1.246 0 .79-.45 1.274-.447.48-1.135.48zm.026-.622q.76 0 .76-1.134 0-.513-.181-.807-.182-.298-.56-.298-.39 0-.578.308-.188.304-.188.81 0 .546.198.834.202.287.549.287zM36.267 104.678h-.755v-3.34h.682v.797q.145-.466.4-.681.255-.215.523-.215.036 0 .099.003v.81q-.576 0-.764.367-.185.368-.185.712zM40.805 100.699v.579h-.232q-.152 0-.268.036-.112.036-.221.235.397.324.397.72 0 .444-.374.735-.37.291-.982.291-.265 0-.619-.086-.231.106-.231.328 0 .122.112.225.112.102.34.102h.993q.51 0 .797.265.291.261.291.651 0 .473-.44.784-.436.31-1.296.31-1.618 0-1.618-.902 0-.446.487-.678-.311-.265-.311-.552 0-.437.532-.695-.463-.28-.463-.774 0-.416.34-.71.341-.295 1.036-.295.317 0 .645.07.152-.639.804-.639zm-1.714 2.15q.616 0 .616-.58 0-.22-.156-.373-.152-.152-.446-.152-.298 0-.463.159-.162.159-.162.397 0 .244.162.397.162.152.45.152zm-.826 1.647q-.162.149-.162.287 0 .229.27.4.272.176.864.176.87 0 .87-.447 0-.165-.152-.248-.152-.086-.348-.086h-.8q-.228 0-.542-.082zM43.39 103.614l.68.092q-.132.453-.515.748-.384.294-.963.294-.694 0-1.118-.466-.423-.467-.423-1.264 0-.757.427-1.253.426-.496 1.157-.496.715 0 1.105.49t.39 1.256l-.003.086h-2.292q0 .34.063.546.066.205.258.357t.48.152q.558 0 .753-.542zm-.047-1q-.003-.36-.218-.588-.212-.228-.526-.228-.311 0-.52.215-.208.212-.244.602zM46.01 102.65v.619h-1.66v-.618zM48.378 103.45l.649.067q-.126.628-.487.93-.36.3-.87.3-.69 0-1.064-.503-.37-.506-.37-1.237 0-.754.406-1.246.407-.493 1.085-.493 1.091 0 1.3 1.15l-.649.09q-.086-.622-.612-.622-.383 0-.559.338-.172.334-.172.81 0 .506.18.78.181.275.505.275.496 0 .658-.638zM50.912 104.746q-.74 0-1.131-.532-.39-.533-.39-1.22 0-.742.43-1.234.433-.493 1.14-.493.672 0 1.102.48.433.479.433 1.246 0 .79-.45 1.274-.446.48-1.134.48zm.026-.622q.761 0 .761-1.134 0-.513-.182-.807-.182-.298-.559-.298-.39 0-.579.308-.188.304-.188.81 0 .546.198.834.202.287.55.287zM58.174 104.678h-.79v-2.08q0-.648-.576-.648-.334 0-.535.245-.199.244-.199.73v1.753h-.8v-2.08q0-.658-.54-.658-.327 0-.552.264-.221.265-.221.721v1.753h-.777v-3.34h.73v.711q.358-.78 1.115-.78.738 0 .96.78.403-.78 1.114-.78.483 0 .777.3.294.301.294.748zM64.067 104.678h-.79v-2.08q0-.648-.576-.648-.334 0-.535.245-.199.244-.199.73v1.753h-.8v-2.08q0-.658-.54-.658-.327 0-.552.264-.221.265-.221.721v1.753h-.778v-3.34h.731v.711q.358-.78 1.115-.78.737 0 .96.78.403-.78 1.114-.78.482 0 .777.3.294.301.294.748zM66.281 104.746q-.74 0-1.13-.532-.391-.533-.391-1.22 0-.742.43-1.234.433-.493 1.14-.493.672 0 1.102.48.433.479.433 1.246 0 .79-.45 1.274-.446.48-1.134.48zm.027-.622q.76 0 .76-1.134 0-.513-.181-.807-.182-.298-.56-.298-.39 0-.578.308-.189.304-.189.81 0 .546.199.834.202.287.549.287zM71.321 104.678h-.754v-2.087q0-.33-.152-.496-.152-.168-.367-.168-.295 0-.516.258-.222.258-.222.777v1.716h-.754v-3.34h.688v.774q.36-.843 1.012-.843.44 0 .751.277.314.278.314.976zM72.993 103.81v.867h-.817v-.867zM75.402 104.09v.589q-.337.072-.522.072-.305 0-.523-.119-.218-.122-.32-.33-.1-.212-.1-.649v-1.73h-.417v-.585h.46l.07-.87.618-.056v.926h.671v.586h-.671v1.63q0 .314.112.43.116.112.434.112.089 0 .188-.006zM77.22 104.746q-.74 0-1.13-.532-.391-.533-.391-1.22 0-.742.43-1.234.433-.493 1.141-.493.671 0 1.101.48.434.479.434 1.246 0 .79-.45 1.274-.447.48-1.135.48zm.027-.622q.76 0 .76-1.134 0-.513-.181-.807-.182-.298-.56-.298-.39 0-.578.308-.189.304-.189.81 0 .546.199.834.202.287.549.287zM84.485 104.678h-.79v-2.08q0-.648-.576-.648-.334 0-.536.245-.198.244-.198.73v1.753h-.8v-2.08q0-.658-.54-.658-.327 0-.552.264-.222.265-.222.721v1.753h-.777v-3.34h.731v.711q.357-.78 1.115-.78.737 0 .959.78.403-.78 1.114-.78.483 0 .778.3.294.301.294.748zM86.14 104.678h-.754v-4.514h.754z"/></g><path fill="#b0b7bd" d="M15.595 100.276h1.612l-2.15-2.15v1.613c0 .295.242.537.538.537z"/><path fill="#cad1d8" d="M15.595 100.275h1.612v1.612z"/></svg>