<?xml version="1.0" encoding="UTF-8"?>
<!-- Created with Inkscape (http://www.inkscape.org/) -->
<svg width="184.55mm" height="120.55mm" version="1.1" viewBox="0 0 184.55 120.55" xmlns="http://www.w3.org/2000/svg">
 <g transform="translate(-22.592 -141.37)">
  <path d="m29.884 142.05h169.96c3.6615 0 6.6092 2.9477 6.6092 6.6092v105.97c0 3.6615-2.9477 6.6092-6.6092 6.6092h-169.96c-3.6615 0-6.6092-2.9477-6.6092-6.6092v-105.97c0-3.6615 2.9477-6.6092 6.6092-6.6092z" fill="#1a1a1a" stroke-linecap="round" stroke-linejoin="round" stroke-width="1.365" style="paint-order:markers fill stroke"/>
  <path d="m29.884 142.05c-3.6615 0-6.6094 2.9474-6.6094 6.6089v13.333h183.18v-13.333c0-3.6615-2.9474-6.6089-6.6089-6.6089h-2.1254z" fill="#393939" style="paint-order:markers fill stroke"/>
  <g transform="matrix(.26458 0 0 .26458 -50.201 61.408)" fill="#fff" style="white-space:pre" aria-label="[Minecraft installation]/config">
   <path d="m318.99 353.77-0.2474 1.4583h-5.013l3.75-22.396h5.013l-0.2474 1.4583h-2.8255l-3.2552 19.479z"/>
   <path d="m339.85 350.6h-3.1901l2.7083-16.185-7.5781 16.185h-1.7318l-2.3958-16.042-2.6823 16.042h-2.487l2.9688-17.773h4.8828l1.8359 11.94 5.4297-11.94h5.2083z"/>
   <path d="m349.11 335.83h-3.0599l0.53385-3.1771h3.0599zm-2.474 14.779h-3.0599l2.2136-13.242h3.0599z"/>
   <path d="m360.96 350.6h-2.9167l1.3542-7.9557q0.14323-0.89844 0.14323-1.5365 0-0.72917-0.41667-1.224-0.40365-0.50781-1.237-0.50781-1.3281 0-2.3438 1.3542-1.0156 1.3412-1.4323 3.9063l-1.0026 5.9636h-2.9167l2.2135-13.242h2.7083l-0.52084 3.086q1.237-2.3177 2.2917-2.8776 1.0547-0.57292 2.0573-0.57292 1.4453 0 2.5 0.98958 1.0677 0.97657 1.0677 2.7344 0 0.69011-0.26042 2.2005z"/>
   <path d="m376.1 346.87q-1.8229 4.0625-5.7813 4.0625-2.6042 0-4.1016-1.6016-1.4844-1.6016-1.4844-4.2578 0-3.3854 1.875-5.7162 1.888-2.3307 4.8438-2.3307 2.6563 0 4.0104 1.6797 1.3672 1.6797 1.3672 4.5833 0 0.48177-0.0391 1.0417h-9.1016q-0.0911 0.5599-0.0911 0.98958 0 1.4974 0.71615 2.4089 0.72916 0.91146 2.0573 0.91146 2.0573 0 3.125-2.4609zm-2.0313-4.4271q0-3.3594-2.6042-3.3594-2.6953 0-3.4635 3.3594z"/>
   <path d="m389.56 346.67q-1.875 4.2188-5.625 4.2188-2.3307 0-3.8021-1.5625-1.4714-1.5755-1.4714-4.4141 0-3.2031 1.8099-5.5729 1.8099-2.3698 4.5443-2.3698 2.0703 0 3.4505 1.2109 1.3932 1.1979 1.7448 3.4115l-2.474 0.48177q-0.52084-2.6042-2.5912-2.6042-1.5365 0-2.5 1.7448-0.96354 1.7448-0.96354 4.0234 0 1.7318 0.72917 2.4609 0.72917 0.71615 1.7318 0.71615 1.9531 0 2.9688-2.6172z"/>
   <path d="m394.08 350.6h-2.9167l2.2136-13.242h2.6823l-0.59896 3.6068q1.7057-3.9714 4.5833-3.9714 0.11719 0 0.35156 0.013l-0.3776 3.2552q-0.42969-0.026-0.65104-0.026-1.0807 0-2.0443 0.57292-0.95052 0.57292-1.4974 1.5495-0.53386 0.96354-0.89844 3.1771z"/>
   <path d="m411.57 350.6h-2.8776q-0.026-0.35156-0.026-0.57292 0-0.95052 0.23437-2.2786-0.65104 1.4844-1.875 2.3438-1.224 0.84635-2.6953 0.84635-1.7708 0-2.8906-1.0938-1.1068-1.1068-1.1068-2.7214 0-2.2266 1.9792-3.5417 1.9922-1.3151 6.224-1.3151 0.54688 0 1.276 0.0521 0.0911-0.59896 0.0911-0.95052 0-1.0677-0.74219-1.6146-0.72917-0.54688-1.8229-0.54688-2.0964 0-3.0599 1.8359l-2.6042-0.82031q1.6406-3.2292 5.7943-3.2292 2.474 0 3.9063 1.1198 1.4323 1.1198 1.4323 2.9818 0 0.79427-0.625 4.1927-0.66406 3.5807-0.66406 4.5443 0 0.35156 0.0521 0.76823zm-2.0182-6.7578q-3.3984 0.18229-4.7266 0.89844-1.3281 0.71614-1.3281 2.0964 0 0.79427 0.53386 1.3021 0.53385 0.49479 1.4583 0.49479 1.3281 0 2.4609-1.1589 1.1328-1.1719 1.6016-3.6328z"/>
   <path d="m418.18 350.6h-2.9167l1.8099-10.82h-1.8099l0.40365-2.4219h1.8099q0.52083-2.7344 1.8229-3.9453 1.3151-1.2109 3.6198-1.2109 1.1979 0 1.862 0.16927l-0.26041 2.4349q-0.625-0.15625-1.3412-0.15625-2.513 0-2.7474 2.7083h2.8516l-0.41667 2.4219h-2.8776z"/>
   <path d="m430.15 350.63q-1.3151 0.19531-1.862 0.19531-1.8359 0-2.6953-0.82031-0.84636-0.83334-0.84636-2.0182 0-0.61198 0.29948-2.3828l1.0026-5.8594h-1.9662l0.40365-2.3828h1.9922l0.79427-3.5677 2.6562-0.18229-0.625 3.75h2.8516l-0.39063 2.3828h-2.8646l-0.98958 5.8984q-0.18229 1.0938-0.18229 1.4063 0 1.263 1.875 1.263 0.39062 0 0.95052-0.0912z"/>
   <path d="m444.71 335.83h-3.0599l0.53385-3.1771h3.0599zm-2.474 14.779h-3.0599l2.2135-13.242h3.0599z"/>
   <path d="m456.55 350.6h-2.9167l1.3542-7.9557q0.14323-0.89844 0.14323-1.5365 0-0.72917-0.41667-1.224-0.40364-0.50781-1.237-0.50781-1.3281 0-2.3438 1.3542-1.0156 1.3412-1.4323 3.9063l-1.0026 5.9636h-2.9167l2.2136-13.242h2.7083l-0.52083 3.086q1.237-2.3177 2.2917-2.8776 1.0547-0.57292 2.0573-0.57292 1.4453 0 2.5 0.98958 1.0677 0.97657 1.0677 2.7344 0 0.69011-0.26041 2.2005z"/>
   <path d="m461.74 346.71q0.76823 1.9792 3.138 1.9792 1.1849 0 1.862-0.48177 0.69011-0.49479 0.69011-1.25 0-0.5599-0.46876-0.88542-0.45572-0.32552-1.5625-0.63802-1.7838-0.49479-2.6432-0.91146t-1.4453-1.276q-0.58594-0.85938-0.58594-1.9662 0-1.7318 1.3151-3.0078 1.3151-1.2891 3.711-1.2891 3.8932 0 5.4688 3.125l-2.513 0.8073q-0.8724-1.7318-2.8776-1.7318-0.89844 0-1.5234 0.41667t-0.625 1.1198q0 0.4948 0.29948 0.82032 0.3125 0.32552 1.237 0.58594 2.1094 0.625 3.125 1.0938 1.0286 0.45573 1.6146 1.3151 0.59896 0.84636 0.59896 1.9531 0 1.875-1.4453 3.138-1.4323 1.263-4.2578 1.263-4.5182 0-5.8984-3.5026z"/>
   <path d="m478.68 350.63q-1.3151 0.19531-1.862 0.19531-1.8359 0-2.6953-0.82031-0.84636-0.83334-0.84636-2.0182 0-0.61198 0.29948-2.3828l1.0026-5.8594h-1.9662l0.40364-2.3828h1.9922l0.79428-3.5677 2.6562-0.18229-0.625 3.75h2.8516l-0.39063 2.3828h-2.8646l-0.98958 5.8984q-0.18229 1.0938-0.18229 1.4063 0 1.263 1.875 1.263 0.39062 0 0.95052-0.0912z"/>
   <path d="m492.02 350.6h-2.8776q-0.026-0.35156-0.026-0.57292 0-0.95052 0.23437-2.2786-0.65104 1.4844-1.875 2.3438-1.224 0.84635-2.6953 0.84635-1.7708 0-2.8906-1.0938-1.1068-1.1068-1.1068-2.7214 0-2.2266 1.9792-3.5417 1.9922-1.3151 6.224-1.3151 0.54687 0 1.276 0.0521 0.0911-0.59896 0.0911-0.95052 0-1.0677-0.74219-1.6146-0.72917-0.54688-1.8229-0.54688-2.0964 0-3.0599 1.8359l-2.6042-0.82031q1.6406-3.2292 5.7943-3.2292 2.474 0 3.9062 1.1198 1.4323 1.1198 1.4323 2.9818 0 0.79427-0.62501 4.1927-0.66406 3.5807-0.66406 4.5443 0 0.35156 0.0521 0.76823zm-2.0182-6.7578q-3.3984 0.18229-4.7266 0.89844-1.3281 0.71614-1.3281 2.0964 0 0.79427 0.53385 1.3021 0.53386 0.49479 1.4583 0.49479 1.3281 0 2.4609-1.1589 1.1328-1.1719 1.6016-3.6328z"/>
   <path d="m498.38 350.6h-3.0599l2.9688-17.773h3.0599z"/>
   <path d="m504.99 350.6h-3.0599l2.9688-17.773h3.0599z"/>
   <path d="m519.54 350.6h-2.8776q-0.026-0.35156-0.026-0.57292 0-0.95052 0.23437-2.2786-0.65104 1.4844-1.875 2.3438-1.224 0.84635-2.6953 0.84635-1.7708 0-2.8906-1.0938-1.1068-1.1068-1.1068-2.7214 0-2.2266 1.9792-3.5417 1.9922-1.3151 6.224-1.3151 0.54687 0 1.276 0.0521 0.0912-0.59896 0.0912-0.95052 0-1.0677-0.74219-1.6146-0.72917-0.54688-1.8229-0.54688-2.0964 0-3.0599 1.8359l-2.6042-0.82031q1.6406-3.2292 5.7943-3.2292 2.474 0 3.9062 1.1198 1.4323 1.1198 1.4323 2.9818 0 0.79427-0.625 4.1927-0.66407 3.5807-0.66407 4.5443 0 0.35156 0.0521 0.76823zm-2.0182-6.7578q-3.3984 0.18229-4.7266 0.89844-1.3281 0.71614-1.3281 2.0964 0 0.79427 0.53385 1.3021 0.53386 0.49479 1.4583 0.49479 1.3281 0 2.4609-1.1589 1.1328-1.1719 1.6016-3.6328z"/>
   <path d="m529.03 350.63q-1.3151 0.19531-1.862 0.19531-1.8359 0-2.6953-0.82031-0.84635-0.83334-0.84635-2.0182 0-0.61198 0.29947-2.3828l1.0026-5.8594h-1.9662l0.40365-2.3828h1.9922l0.79427-3.5677 2.6562-0.18229-0.625 3.75h2.8516l-0.39063 2.3828h-2.8646l-0.98959 5.8984q-0.18229 1.0938-0.18229 1.4063 0 1.263 1.875 1.263 0.39063 0 0.95052-0.0912z"/>
   <path d="m536.92 335.83h-3.0599l0.53385-3.1771h3.0599zm-2.474 14.779h-3.0599l2.2135-13.242h3.0599z"/>
   <path d="m543.91 350.94q-1.4714 0-2.8516-0.65104-1.3672-0.65104-2.0964-2.0573-0.71615-1.4193-0.71615-3.3724 0-3.1641 1.862-5.4688 1.862-2.3177 4.8698-2.3177 2.474 0 3.9583 1.6667 1.4844 1.6536 1.4844 4.4531 0 2.8776-1.7708 5.3125t-4.7396 2.4349zm0.026-2.3828q1.7708 0 2.6042-1.8229 0.83334-1.8359 0.83334-3.8412 0-3.4375-2.6563-3.4375-1.862 0-2.6693 1.9662t-0.80729 3.9193q0 1.6536 0.78125 2.4349 0.78125 0.78126 1.9141 0.78126z"/>
   <path d="m562.77 350.6h-2.9167l1.3542-7.9557q0.14323-0.89844 0.14323-1.5365 0-0.72917-0.41667-1.224-0.40365-0.50781-1.237-0.50781-1.3281 0-2.3438 1.3542-1.0156 1.3412-1.4323 3.9063l-1.0026 5.9636h-2.9167l2.2135-13.242h2.7083l-0.52084 3.086q1.237-2.3177 2.2917-2.8776 1.0547-0.57292 2.0573-0.57292 1.4453 0 2.5 0.98958 1.0677 0.97657 1.0677 2.7344 0 0.69011-0.26042 2.2005z"/>
   <path d="m568.27 334.29 0.2474-1.4583h5.013l-3.75 22.396h-5.013l0.2474-1.4583h2.8385l3.2682-19.479z"/>
   <path d="m572.26 355.23h-1.9531l13.828-22.396h2.0052z"/>
   <path d="m596.88 346.67q-1.875 4.2188-5.625 4.2188-2.3307 0-3.8021-1.5625-1.4714-1.5755-1.4714-4.4141 0-3.2031 1.8099-5.5729 1.8099-2.3698 4.5443-2.3698 2.0703 0 3.4505 1.2109 1.3932 1.1979 1.7448 3.4115l-2.474 0.48177q-0.52084-2.6042-2.5912-2.6042-1.5365 0-2.5 1.7448-0.96355 1.7448-0.96355 4.0234 0 1.7318 0.72917 2.4609 0.72917 0.71615 1.7318 0.71615 1.9531 0 2.9688-2.6172z"/>
   <path d="m604.39 350.94q-1.4714 0-2.8516-0.65104-1.3672-0.65104-2.0964-2.0573-0.71615-1.4193-0.71615-3.3724 0-3.1641 1.862-5.4688 1.862-2.3177 4.8698-2.3177 2.474 0 3.9583 1.6667 1.4844 1.6536 1.4844 4.4531 0 2.8776-1.7708 5.3125-1.7708 2.4349-4.7396 2.4349zm0.026-2.3828q1.7708 0 2.6042-1.8229 0.83334-1.8359 0.83334-3.8412 0-3.4375-2.6562-3.4375-1.862 0-2.6693 1.9662t-0.80729 3.9193q0 1.6536 0.78125 2.4349 0.78125 0.78126 1.9141 0.78126z"/>
   <path d="m623.25 350.6h-2.9167l1.3542-7.9557q0.14323-0.89844 0.14323-1.5365 0-0.72917-0.41666-1.224-0.40365-0.50781-1.237-0.50781-1.3281 0-2.3438 1.3542-1.0156 1.3412-1.4323 3.9063l-1.0026 5.9636h-2.9167l2.2136-13.242h2.7083l-0.52083 3.086q1.237-2.3177 2.2917-2.8776 1.0547-0.57292 2.0573-0.57292 1.4453 0 2.5 0.98958 1.0677 0.97657 1.0677 2.7344 0 0.69011-0.26042 2.2005z"/>
   <path d="m630.12 350.6h-2.9167l1.8099-10.82h-1.8099l0.40364-2.4219h1.8099q0.52083-2.7344 1.8229-3.9453 1.3151-1.2109 3.6198-1.2109 1.1979 0 1.862 0.16927l-0.26042 2.4349q-0.625-0.15625-1.3412-0.15625-2.513 0-2.7474 2.7083h2.8516l-0.41667 2.4219h-2.8776z"/>
   <path d="m640.94 335.83h-3.0599l0.53386-3.1771h3.0599zm-2.474 14.779h-3.0599l2.2136-13.242h3.0599z"/>
   <path d="m643.09 349.35q-1.1198-0.76823-1.1198-2.0443 0-0.97656 0.50781-1.7057 0.52084-0.74219 2.0964-1.5234-1.4974-1.0807-1.4974-2.7214 0-2.0313 1.5625-3.1771 1.5755-1.1458 4.349-1.1458 0.97656 0 1.6406 0.19532 0.63802-1.9401 1.5495-2.6172 0.91146-0.67708 2.3438-0.67708 0.39063 0 0.88542 0.0651l-0.026 2.2656q-0.70313-0.0651-0.97657-0.0651-0.70312 0-1.3932 0.23437-0.6901 0.23438-1.0677 1.276 2.0312 1.0156 2.0312 3.151 0 1.862-1.4583 3.0729-1.4583 1.2109-4.1667 1.2109-1.1458 0-2.5781-0.3776-1.1849 0.59896-1.1849 1.6146 0 0.5599 0.41667 0.88542 0.41667 0.3125 1.7057 0.3125h1.5755q2.3047 0 3.3724 0.39063 1.0807 0.3776 1.6797 1.224 0.61198 0.83333 0.61198 1.7969 0 1.6406-1.5885 2.9818-1.5755 1.3542-5.5339 1.3542-5.8464 0-5.8464-3.112 0-1.0677 0.54687-1.6797 0.54688-0.625 1.5625-1.1849zm5.2474-5.9505q1.263 0 1.9662-0.67709 0.70312-0.6901 0.70312-1.849 0-1.9661-2.1484-1.9661-1.276 0-2.0052 0.6901-0.72917 0.67708-0.72917 1.7969 0 2.0052 2.2136 2.0052zm-3.9323 6.6146q-0.85938 0.70313-0.85938 1.3932 0 0.8724 0.96355 1.4323 0.96354 0.57292 2.8906 0.57292 3.737 0 3.737-2.0052 0-0.78125-0.58594-0.96354-0.58594-0.19531-2.9818-0.19531-2.5 0-3.1641-0.23438z"/>
  </g>
  <path d="m29.884 141.37c-4.0278 0-7.293 3.2632-7.293 7.291v105.97c0 4.0278 3.2652 7.293 7.293 7.293h169.96c4.0278 0 7.293-3.2652 7.293-7.293v-105.97c0-4.0278-3.2652-7.291-7.293-7.291zm0 1.3652h169.96c3.2952 0 5.9277 2.6306 5.9277 5.9258v105.97c0 3.2952-2.6326 5.9277-5.9277 5.9277h-169.96c-3.2952 0-5.9277-2.6326-5.9277-5.9277v-105.97c0-3.2952 2.6326-5.9258 5.9277-5.9258z" color="#000000" fill="#fff" stroke-linecap="round" stroke-linejoin="round" style="-inkscape-stroke:none;paint-order:markers fill stroke"/>
  <g transform="translate(-29.186 -46.024)">
   <g transform="matrix(.21167 0 0 .21167 60.681 214.43)">
    <path d="m40 12h-18l-4-4h-10c-2.2 0-4 1.8-4 4v8h40v-4c0-2.2-1.8-4-4-4z" fill="#ffa000"/>
    <path d="m40 12h-32c-2.2 0-4 1.8-4 4v20c0 2.2 1.8 4 4 4h32c2.2 0 4-1.8 4-4v-20c0-2.2-1.8-4-4-4z" fill="#ffca28"/>
   </g>
   <g transform="matrix(.21167 0 0 .21167 14.758 146.53)" fill="#fff" style="white-space:pre" aria-label="defaultsettings">
    <path d="m328.92 355.47h-3.3281v-3.1875q-1.375 3.5156-4.6562 3.5156-2.9062 0-4.4531-2.4219-1.5469-2.4219-1.5469-6.0156 0-3.3438 1.6094-5.8281 1.6094-2.4844 4.5781-2.4844 3.0469 0 4.2344 2.7812v-7.6875h3.5625zm-3.5625-9.3125q0-1.9219-0.92188-2.9844-0.90625-1.0781-2.3594-1.0781-1.5781 0-2.4688 1.375-0.89063 1.375-0.89063 4.1094 0 5.2812 3.3125 5.2812 1.3125 0 2.3125-1.125 1.0156-1.1406 1.0156-2.9062z"/>
    <path d="m343.21 350.44 3.2188 0.4375q-0.625 2.1406-2.4375 3.5312-1.8125 1.3906-4.5469 1.3906-3.2812 0-5.2812-2.2031-2-2.2031-2-5.9688 0-3.5781 2.0156-5.9219 2.0156-2.3438 5.4688-2.3438 3.375 0 5.2188 2.3125t1.8438 5.9375l-0.0156 0.40625h-10.828q0 1.6094 0.29688 2.5781 0.3125 0.96875 1.2188 1.6875t2.2656 0.71875q2.6406 0 3.5625-2.5625zm-0.21875-4.7188q-0.0156-1.7031-1.0312-2.7812-1-1.0781-2.4844-1.0781-1.4688 0-2.4531 1.0156-0.98437 1-1.1562 2.8438z"/>
    <path d="m353.95 355.47h-3.4375v-13.016h-2.3438v-2.7656h2.3438v-0.78125q0-2.3125 1.125-3.7188t4.5469-1.4062q0.5 0 1.2656 0.0312v2.7969q-0.67188-0.0469-0.92188-0.0469-1.3125 0-1.8438 0.35937-0.53125 0.34375-0.64062 0.82813-0.0937 0.46875-0.0937 1.9375h3.5v2.7656h-3.5z"/>
    <path d="m373.57 355.47h-3.3906q-0.45312-1.4375-0.54687-3.1875-1.4219 3.5156-5.3438 3.5156-2.3594 0-3.7969-1.375-1.4219-1.3906-1.4219-3.4844 0-5.4375 9.5469-5.4375 0.375 0 1.0156 0.0156v-1.1875q0-2.4531-3.3438-2.4531-3.25 0-3.6875 2.4531l-3.0312-0.45312q0.25-1.9688 2.0312-3.2344 1.7812-1.2812 5.1562-1.2812 1.8281 0 2.9844 0.3125 1.1562 0.29688 1.9531 1.0312 0.79687 0.71875 1.0938 1.5781 0.3125 0.84375 0.3125 2.875v7.125q0 1.5469 0.46875 3.1875zm-3.9375-8.0312q-6.9062 0-6.9062 3.2969 0 0.98438 0.6875 1.6875 0.70312 0.6875 2.1094 0.6875 2.0312 0 3.0625-1.2812 1.0469-1.2969 1.0469-2.9375z"/>
    <path d="m390.35 355.47h-3.3125v-3.4062q-1.3438 3.7344-4.9844 3.7344-2.1562 0-3.4219-1.3281-1.2656-1.3438-1.2656-3.7344v-11.047h3.6406v10.281q0 1.7031 0.75 2.2344t1.4688 0.53125q1.1562 0 2.3594-1.0312 1.2031-1.0469 1.2031-4.4375v-7.5781h3.5625z"/>
    <path d="m398.18 355.47h-3.5625v-21.328h3.5625z"/>
    <path d="m409.78 352.69v2.7812q-1.5938 0.34375-2.4688 0.34375-1.4375 0-2.4688-0.5625-1.0312-0.57813-1.5156-1.5625-0.46875-1-0.46875-3.0625v-8.1719h-1.9688v-2.7656h2.1719l0.32813-4.1094 2.9219-0.26562v4.375h3.1719v2.7656h-3.1719v7.7031q0 1.4844 0.53125 2.0312 0.54688 0.53125 2.0469 0.53125 0.42187 0 0.89062-0.0312z"/>
    <path d="m410.85 351.84 3.3438-0.64063q0.76562 1.9219 3.375 1.9219 3.3125 0 3.3125-1.9531 0-0.625-0.51563-1.0312-0.51562-0.40625-1.2188-0.54687l-2.875-0.54688q-4.7812-0.92187-4.7812-4.6719 0-2.0938 1.5156-3.5469 1.5156-1.4688 4.5156-1.4688 5 0 6.1094 3.6719l-3.1719 0.64062q-0.5-1.7812-2.8438-1.7812-2.8438 0-2.8438 1.7812 0 1.2344 2.2969 1.7031l3.3906 0.70312q3.9531 0.8125 3.9531 4.5312 0 2.6094-2.0312 3.9062-2.0312 1.2812-4.8281 1.2812-2.4219 0-4.2812-0.96875-1.8594-0.98437-2.4219-2.9844z"/>
    <path d="m437.34 350.44 3.2188 0.4375q-0.625 2.1406-2.4375 3.5312-1.8125 1.3906-4.5469 1.3906-3.2812 0-5.2812-2.2031-2-2.2031-2-5.9688 0-3.5781 2.0156-5.9219 2.0156-2.3438 5.4688-2.3438 3.375 0 5.2188 2.3125t1.8438 5.9375l-0.0156 0.40625h-10.828q0 1.6094 0.29688 2.5781 0.3125 0.96875 1.2188 1.6875t2.2656 0.71875q2.6406 0 3.5625-2.5625zm-0.21875-4.7188q-0.0156-1.7031-1.0312-2.7812-1-1.0781-2.4844-1.0781-1.4688 0-2.4531 1.0156-0.98437 1-1.1562 2.8438z"/>
    <path d="m451.21 352.69v2.7812q-1.5938 0.34375-2.4688 0.34375-1.4375 0-2.4688-0.5625-1.0312-0.57813-1.5156-1.5625-0.46875-1-0.46875-3.0625v-8.1719h-1.9688v-2.7656h2.1719l0.32813-4.1094 2.9219-0.26562v4.375h3.1719v2.7656h-3.1719v7.7031q0 1.4844 0.53125 2.0312 0.54688 0.53125 2.0469 0.53125 0.42187 0 0.89062-0.0312z"/>
    <path d="m461.53 352.69v2.7812q-1.5938 0.34375-2.4688 0.34375-1.4375 0-2.4688-0.5625-1.0312-0.57813-1.5156-1.5625-0.46875-1-0.46875-3.0625v-8.1719h-1.9688v-2.7656h2.1719l0.32813-4.1094 2.9219-0.26562v4.375h3.1719v2.7656h-3.1719v7.7031q0 1.4844 0.53125 2.0312 0.54688 0.53125 2.0469 0.53125 0.42187 0 0.89062-0.0312z"/>
    <path d="m468.07 337.84h-3.5625v-3.7031h3.5625zm0 17.625h-3.5625v-15.781h3.5625z"/>
    <path d="m485.42 355.47h-3.5625v-9.8594q0-1.5625-0.71875-2.3438-0.71875-0.79687-1.7344-0.79687-1.3906 0-2.4375 1.2188-1.0469 1.2188-1.0469 3.6719v8.1094h-3.5625v-15.781h3.25v3.6562q1.7031-3.9844 4.7812-3.9844 2.0781 0 3.5469 1.3125 1.4844 1.3125 1.4844 4.6094z"/>
    <path d="m504.07 336.67v2.7344h-1.0938q-0.71875 0-1.2656 0.17187-0.53125 0.17188-1.0469 1.1094 1.875 1.5312 1.875 3.4062 0 2.0938-1.7656 3.4688-1.75 1.375-4.6406 1.375-1.25 0-2.9219-0.40625-1.0938 0.5-1.0938 1.5469 0 0.57813 0.53125 1.0625 0.53125 0.48438 1.6094 0.48438h4.6875q2.4062 0 3.7656 1.25 1.375 1.2344 1.375 3.0781 0 2.2344-2.0781 3.7031-2.0625 1.4688-6.125 1.4688-7.6406 0-7.6406-4.2656 0-2.1094 2.2969-3.2031-1.4688-1.25-1.4688-2.6094 0-2.0625 2.5156-3.2812-2.1875-1.3281-2.1875-3.6562 0-1.9688 1.6094-3.3594 1.6094-1.3906 4.8906-1.3906 1.5 0 3.0469 0.32813 0.71875-3.0156 3.7969-3.0156zm-8.0938 10.156q2.9062 0 2.9062-2.7344 0-1.0469-0.73438-1.7656-0.71875-0.71875-2.1094-0.71875-1.4062 0-2.1875 0.75-0.76563 0.75-0.76563 1.875 0 1.1562 0.76563 1.875 0.76562 0.71875 2.125 0.71875zm-3.9062 7.7812q-0.76563 0.70313-0.76563 1.3594 0 1.0781 1.2812 1.8906 1.2812 0.82813 4.0781 0.82813 4.1094 0 4.1094-2.1094 0-0.78125-0.71875-1.1719-0.71875-0.40625-1.6406-0.40625h-3.7812q-1.0781 0-2.5625-0.39063z"/>
    <path d="m504.34 351.84 3.3438-0.64063q0.76563 1.9219 3.375 1.9219 3.3125 0 3.3125-1.9531 0-0.625-0.51562-1.0312-0.51563-0.40625-1.2188-0.54687l-2.875-0.54688q-4.7812-0.92187-4.7812-4.6719 0-2.0938 1.5156-3.5469 1.5156-1.4688 4.5156-1.4688 5 0 6.1094 3.6719l-3.1719 0.64062q-0.5-1.7812-2.8438-1.7812-2.8438 0-2.8438 1.7812 0 1.2344 2.2969 1.7031l3.3906 0.70312q3.9531 0.8125 3.9531 4.5312 0 2.6094-2.0312 3.9062-2.0312 1.2812-4.8281 1.2812-2.4219 0-4.2812-0.96875-1.8594-0.98437-2.4219-2.9844z"/>
   </g>
   <g transform="matrix(.21167 0 0 .21167 14.758 164.1)" fill="#fff" style="white-space:pre" aria-label="defaultsettings.json">
    <path d="m328.92 355.47h-3.3281v-3.1875q-1.375 3.5156-4.6562 3.5156-2.9062 0-4.4531-2.4219-1.5469-2.4219-1.5469-6.0156 0-3.3438 1.6094-5.8281 1.6094-2.4844 4.5781-2.4844 3.0469 0 4.2344 2.7812v-7.6875h3.5625zm-3.5625-9.3125q0-1.9219-0.92188-2.9844-0.90625-1.0781-2.3594-1.0781-1.5781 0-2.4688 1.375-0.89063 1.375-0.89063 4.1094 0 5.2812 3.3125 5.2812 1.3125 0 2.3125-1.125 1.0156-1.1406 1.0156-2.9062z"/>
    <path d="m343.21 350.44 3.2188 0.4375q-0.625 2.1406-2.4375 3.5312-1.8125 1.3906-4.5469 1.3906-3.2812 0-5.2812-2.2031-2-2.2031-2-5.9688 0-3.5781 2.0156-5.9219 2.0156-2.3438 5.4688-2.3438 3.375 0 5.2188 2.3125t1.8438 5.9375l-0.0156 0.40625h-10.828q0 1.6094 0.29688 2.5781 0.3125 0.96875 1.2188 1.6875t2.2656 0.71875q2.6406 0 3.5625-2.5625zm-0.21875-4.7188q-0.0156-1.7031-1.0312-2.7812-1-1.0781-2.4844-1.0781-1.4688 0-2.4531 1.0156-0.98437 1-1.1562 2.8438z"/>
    <path d="m353.95 355.47h-3.4375v-13.016h-2.3438v-2.7656h2.3438v-0.78125q0-2.3125 1.125-3.7188t4.5469-1.4062q0.5 0 1.2656 0.0312v2.7969q-0.67188-0.0469-0.92188-0.0469-1.3125 0-1.8438 0.35937-0.53125 0.34375-0.64062 0.82813-0.0937 0.46875-0.0937 1.9375h3.5v2.7656h-3.5z"/>
    <path d="m373.57 355.47h-3.3906q-0.45312-1.4375-0.54687-3.1875-1.4219 3.5156-5.3438 3.5156-2.3594 0-3.7969-1.375-1.4219-1.3906-1.4219-3.4844 0-5.4375 9.5469-5.4375 0.375 0 1.0156 0.0156v-1.1875q0-2.4531-3.3438-2.4531-3.25 0-3.6875 2.4531l-3.0312-0.45312q0.25-1.9688 2.0312-3.2344 1.7812-1.2812 5.1562-1.2812 1.8281 0 2.9844 0.3125 1.1562 0.29688 1.9531 1.0312 0.79687 0.71875 1.0938 1.5781 0.3125 0.84375 0.3125 2.875v7.125q0 1.5469 0.46875 3.1875zm-3.9375-8.0312q-6.9062 0-6.9062 3.2969 0 0.98438 0.6875 1.6875 0.70312 0.6875 2.1094 0.6875 2.0312 0 3.0625-1.2812 1.0469-1.2969 1.0469-2.9375z"/>
    <path d="m390.35 355.47h-3.3125v-3.4062q-1.3438 3.7344-4.9844 3.7344-2.1562 0-3.4219-1.3281-1.2656-1.3438-1.2656-3.7344v-11.047h3.6406v10.281q0 1.7031 0.75 2.2344t1.4688 0.53125q1.1562 0 2.3594-1.0312 1.2031-1.0469 1.2031-4.4375v-7.5781h3.5625z"/>
    <path d="m398.18 355.47h-3.5625v-21.328h3.5625z"/>
    <path d="m409.78 352.69v2.7812q-1.5938 0.34375-2.4688 0.34375-1.4375 0-2.4688-0.5625-1.0312-0.57813-1.5156-1.5625-0.46875-1-0.46875-3.0625v-8.1719h-1.9688v-2.7656h2.1719l0.32813-4.1094 2.9219-0.26562v4.375h3.1719v2.7656h-3.1719v7.7031q0 1.4844 0.53125 2.0312 0.54688 0.53125 2.0469 0.53125 0.42187 0 0.89062-0.0312z"/>
    <path d="m410.85 351.84 3.3438-0.64063q0.76562 1.9219 3.375 1.9219 3.3125 0 3.3125-1.9531 0-0.625-0.51563-1.0312-0.51562-0.40625-1.2188-0.54687l-2.875-0.54688q-4.7812-0.92187-4.7812-4.6719 0-2.0938 1.5156-3.5469 1.5156-1.4688 4.5156-1.4688 5 0 6.1094 3.6719l-3.1719 0.64062q-0.5-1.7812-2.8438-1.7812-2.8438 0-2.8438 1.7812 0 1.2344 2.2969 1.7031l3.3906 0.70312q3.9531 0.8125 3.9531 4.5312 0 2.6094-2.0312 3.9062-2.0312 1.2812-4.8281 1.2812-2.4219 0-4.2812-0.96875-1.8594-0.98437-2.4219-2.9844z"/>
    <path d="m437.34 350.44 3.2188 0.4375q-0.625 2.1406-2.4375 3.5312-1.8125 1.3906-4.5469 1.3906-3.2812 0-5.2812-2.2031-2-2.2031-2-5.9688 0-3.5781 2.0156-5.9219 2.0156-2.3438 5.4688-2.3438 3.375 0 5.2188 2.3125t1.8438 5.9375l-0.0156 0.40625h-10.828q0 1.6094 0.29688 2.5781 0.3125 0.96875 1.2188 1.6875t2.2656 0.71875q2.6406 0 3.5625-2.5625zm-0.21875-4.7188q-0.0156-1.7031-1.0312-2.7812-1-1.0781-2.4844-1.0781-1.4688 0-2.4531 1.0156-0.98437 1-1.1562 2.8438z"/>
    <path d="m451.21 352.69v2.7812q-1.5938 0.34375-2.4688 0.34375-1.4375 0-2.4688-0.5625-1.0312-0.57813-1.5156-1.5625-0.46875-1-0.46875-3.0625v-8.1719h-1.9688v-2.7656h2.1719l0.32813-4.1094 2.9219-0.26562v4.375h3.1719v2.7656h-3.1719v7.7031q0 1.4844 0.53125 2.0312 0.54688 0.53125 2.0469 0.53125 0.42187 0 0.89062-0.0312z"/>
    <path d="m461.53 352.69v2.7812q-1.5938 0.34375-2.4688 0.34375-1.4375 0-2.4688-0.5625-1.0312-0.57813-1.5156-1.5625-0.46875-1-0.46875-3.0625v-8.1719h-1.9688v-2.7656h2.1719l0.32813-4.1094 2.9219-0.26562v4.375h3.1719v2.7656h-3.1719v7.7031q0 1.4844 0.53125 2.0312 0.54688 0.53125 2.0469 0.53125 0.42187 0 0.89062-0.0312z"/>
    <path d="m468.07 337.84h-3.5625v-3.7031h3.5625zm0 17.625h-3.5625v-15.781h3.5625z"/>
    <path d="m485.42 355.47h-3.5625v-9.8594q0-1.5625-0.71875-2.3438-0.71875-0.79687-1.7344-0.79687-1.3906 0-2.4375 1.2188-1.0469 1.2188-1.0469 3.6719v8.1094h-3.5625v-15.781h3.25v3.6562q1.7031-3.9844 4.7812-3.9844 2.0781 0 3.5469 1.3125 1.4844 1.3125 1.4844 4.6094z"/>
    <path d="m504.07 336.67v2.7344h-1.0938q-0.71875 0-1.2656 0.17187-0.53125 0.17188-1.0469 1.1094 1.875 1.5312 1.875 3.4062 0 2.0938-1.7656 3.4688-1.75 1.375-4.6406 1.375-1.25 0-2.9219-0.40625-1.0938 0.5-1.0938 1.5469 0 0.57813 0.53125 1.0625 0.53125 0.48438 1.6094 0.48438h4.6875q2.4062 0 3.7656 1.25 1.375 1.2344 1.375 3.0781 0 2.2344-2.0781 3.7031-2.0625 1.4688-6.125 1.4688-7.6406 0-7.6406-4.2656 0-2.1094 2.2969-3.2031-1.4688-1.25-1.4688-2.6094 0-2.0625 2.5156-3.2812-2.1875-1.3281-2.1875-3.6562 0-1.9688 1.6094-3.3594 1.6094-1.3906 4.8906-1.3906 1.5 0 3.0469 0.32813 0.71875-3.0156 3.7969-3.0156zm-8.0938 10.156q2.9062 0 2.9062-2.7344 0-1.0469-0.73438-1.7656-0.71875-0.71875-2.1094-0.71875-1.4062 0-2.1875 0.75-0.76563 0.75-0.76563 1.875 0 1.1562 0.76563 1.875 0.76562 0.71875 2.125 0.71875zm-3.9062 7.7812q-0.76563 0.70313-0.76563 1.3594 0 1.0781 1.2812 1.8906 1.2812 0.82813 4.0781 0.82813 4.1094 0 4.1094-2.1094 0-0.78125-0.71875-1.1719-0.71875-0.40625-1.6406-0.40625h-3.7812q-1.0781 0-2.5625-0.39063z"/>
    <path d="m504.34 351.84 3.3438-0.64063q0.76563 1.9219 3.375 1.9219 3.3125 0 3.3125-1.9531 0-0.625-0.51562-1.0312-0.51563-0.40625-1.2188-0.54687l-2.875-0.54688q-4.7812-0.92187-4.7812-4.6719 0-2.0938 1.5156-3.5469 1.5156-1.4688 4.5156-1.4688 5 0 6.1094 3.6719l-3.1719 0.64062q-0.5-1.7812-2.8438-1.7812-2.8438 0-2.8438 1.7812 0 1.2344 2.2969 1.7031l3.3906 0.70312q3.9531 0.8125 3.9531 4.5312 0 2.6094-2.0312 3.9062-2.0312 1.2812-4.8281 1.2812-2.4219 0-4.2812-0.96875-1.8594-0.98437-2.4219-2.9844z"/>
    <path d="m524.43 351.37v4.0938h-3.8594v-4.0938z"/>
    <path d="m532.04 337.84h-3.5625v-3.7031h3.5625zm0 1.8438v15.531q0 5.9062-5.4219 5.9062-0.82812 0-1.8281-0.1875v-3.0156q0.67187 0.0781 1.1406 0.0781 1.4844 0 2.0156-0.5625t0.53125-2.2188v-15.531z"/>
    <path d="m534.4 351.84 3.3438-0.64063q0.76563 1.9219 3.375 1.9219 3.3125 0 3.3125-1.9531 0-0.625-0.51562-1.0312-0.51563-0.40625-1.2188-0.54687l-2.875-0.54688q-4.7812-0.92187-4.7812-4.6719 0-2.0938 1.5156-3.5469 1.5156-1.4688 4.5156-1.4688 5 0 6.1094 3.6719l-3.1719 0.64062q-0.5-1.7812-2.8438-1.7812-2.8438 0-2.8438 1.7812 0 1.2344 2.2969 1.7031l3.3906 0.70312q3.9531 0.8125 3.9531 4.5312 0 2.6094-2.0312 3.9062-2.0312 1.2812-4.8281 1.2812-2.4219 0-4.2812-0.96875-1.8594-0.98437-2.4219-2.9844z"/>
    <path d="m557.03 355.79q-3.5 0-5.3438-2.5156-1.8438-2.5156-1.8438-5.7656 0-3.5 2.0312-5.8281 2.0469-2.3281 5.3906-2.3281 3.1719 0 5.2031 2.2656 2.0469 2.2656 2.0469 5.8906 0 3.7344-2.125 6.0156-2.1094 2.2656-5.3594 2.2656zm0.125-2.9375q3.5938 0 3.5938-5.3594 0-2.4219-0.85937-3.8125-0.85938-1.4062-2.6406-1.4062-1.8438 0-2.7344 1.4531-0.89063 1.4375-0.89063 3.8281 0 2.5781 0.9375 3.9375 0.95313 1.3594 2.5938 1.3594z"/>
    <path d="m580.84 355.47h-3.5625v-9.8594q0-1.5625-0.71875-2.3438-0.71875-0.79687-1.7344-0.79687-1.3906 0-2.4375 1.2188-1.0469 1.2188-1.0469 3.6719v8.1094h-3.5625v-15.781h3.25v3.6562q1.7031-3.9844 4.7812-3.9844 2.0781 0 3.5469 1.3125 1.4844 1.3125 1.4844 4.6094z"/>
   </g>
   <g transform="matrix(.01679 0 0 .01679 60.926 232.79)">
    <path d="m128 0c-17.6 0-32 14.4-32 32v448c0 17.6 14.4 32 32 32h320c17.6 0 32-14.4 32-32v-352l-128-128z" fill="#e2e5e7"/>
    <path d="m384 128h96l-128-128v96c0 17.6 14.4 32 32 32z" fill="#b0b7bd"/>
    <path d="m480 128v96l-96-96z" fill="#cad1d8"/>
   </g>
   <g transform="matrix(.21167 0 0 .21167 14.758 181.68)" fill="#fff" style="white-space:pre" aria-label="fml.toml">
    <path d="m319.93 355.47h-3.4375v-13.016h-2.3438v-2.7656h2.3438v-0.78125q0-2.3125 1.125-3.7188t4.5469-1.4062q0.5 0 1.2656 0.0312v2.7969q-0.67187-0.0469-0.92187-0.0469-1.3125 0-1.8438 0.35937-0.53125 0.34375-0.64063 0.82813-0.0937 0.46875-0.0937 1.9375h3.5v2.7656h-3.5z"/>
    <path d="m349.62 355.47h-3.7344v-9.8281q0-3.0625-2.7188-3.0625-1.5781 0-2.5312 1.1562-0.9375 1.1562-0.9375 3.4531v8.2812h-3.7812v-9.8281q0-3.1094-2.5469-3.1094-1.5469 0-2.6094 1.25-1.0469 1.25-1.0469 3.4062v8.2812h-3.6719v-15.781h3.4531v3.3594q1.6875-3.6875 5.2656-3.6875 3.4844 0 4.5312 3.6875 1.9062-3.6875 5.2656-3.6875 2.2812 0 3.6719 1.4219 1.3906 1.4219 1.3906 3.5312z"/>
    <path d="m357.45 355.47h-3.5625v-21.328h3.5625z"/>
    <path d="m365.37 351.37v4.0938h-3.8594v-4.0938z"/>
    <path d="m376.74 352.69v2.7812q-1.5938 0.34375-2.4688 0.34375-1.4375 0-2.4688-0.5625-1.0312-0.57813-1.5156-1.5625-0.46875-1-0.46875-3.0625v-8.1719h-1.9688v-2.7656h2.1719l0.32813-4.1094 2.9219-0.26562v4.375h3.1719v2.7656h-3.1719v7.7031q0 1.4844 0.53125 2.0312 0.54688 0.53125 2.0469 0.53125 0.42187 0 0.89062-0.0312z"/>
    <path d="m385.34 355.79q-3.5 0-5.3438-2.5156-1.8438-2.5156-1.8438-5.7656 0-3.5 2.0312-5.8281 2.0469-2.3281 5.3906-2.3281 3.1719 0 5.2031 2.2656 2.0469 2.2656 2.0469 5.8906 0 3.7344-2.125 6.0156-2.1094 2.2656-5.3594 2.2656zm0.125-2.9375q3.5938 0 3.5938-5.3594 0-2.4219-0.85937-3.8125-0.85938-1.4062-2.6406-1.4062-1.8438 0-2.7344 1.4531-0.89063 1.4375-0.89063 3.8281 0 2.5781 0.9375 3.9375 0.95313 1.3594 2.5938 1.3594z"/>
    <path d="m419.65 355.47h-3.7344v-9.8281q0-3.0625-2.7188-3.0625-1.5781 0-2.5312 1.1562-0.9375 1.1562-0.9375 3.4531v8.2812h-3.7812v-9.8281q0-3.1094-2.5469-3.1094-1.5469 0-2.6094 1.25-1.0469 1.25-1.0469 3.4062v8.2812h-3.6719v-15.781h3.4531v3.3594q1.6875-3.6875 5.2656-3.6875 3.4844 0 4.5312 3.6875 1.9062-3.6875 5.2656-3.6875 2.2812 0 3.6719 1.4219 1.3906 1.4219 1.3906 3.5312z"/>
    <path d="m427.48 355.47h-3.5625v-21.328h3.5625z"/>
   </g>
   <path d="m63.075 250.36c-0.2955 0-0.53727 0.24177-0.53727 0.53727v7.5218c0 0.29549 0.24177 0.53727 0.53727 0.53727h5.3727c0.2955 0 0.53727-0.24178 0.53727-0.53727v-5.91l-2.1491-2.1491z" fill="#e2e5e7" stroke-width=".01679"/>
   <path d="m67.373 252.51h1.6118l-2.1491-2.1491v1.6118c0 0.2955 0.24177 0.53727 0.53727 0.53727z" fill="#b0b7bd" stroke-width=".01679"/>
   <path transform="matrix(.01679 0 0 .01679 60.926 250.36)" d="m480 224-96-96h96z" fill="#cad1d8"/>
   <path d="m63.075 267.94c-0.2955 0-0.53727 0.24177-0.53727 0.53727v7.5218c0 0.2955 0.24177 0.53727 0.53727 0.53727h5.3727c0.2955 0 0.53727-0.24177 0.53727-0.53727v-5.91l-2.1491-2.1491z" fill="#e2e5e7" stroke-width=".01679"/>
   <g transform="matrix(.21167 0 0 .21167 14.758 199.26)" fill="#fff" style="white-space:pre" aria-label="forge-client.toml">
    <path d="m319.93 355.47h-3.4375v-13.016h-2.3438v-2.7656h2.3438v-0.78125q0-2.3125 1.125-3.7188t4.5469-1.4062q0.5 0 1.2656 0.0312v2.7969q-0.67187-0.0469-0.92187-0.0469-1.3125 0-1.8438 0.35937-0.53125 0.34375-0.64063 0.82813-0.0937 0.46875-0.0937 1.9375h3.5v2.7656h-3.5z"/>
    <path d="m331.92 355.79q-3.5 0-5.3438-2.5156-1.8438-2.5156-1.8438-5.7656 0-3.5 2.0312-5.8281 2.0469-2.3281 5.3906-2.3281 3.1719 0 5.2031 2.2656 2.0469 2.2656 2.0469 5.8906 0 3.7344-2.125 6.0156-2.1094 2.2656-5.3594 2.2656zm0.125-2.9375q3.5938 0 3.5938-5.3594 0-2.4219-0.85938-3.8125-0.85937-1.4062-2.6406-1.4062-1.8438 0-2.7344 1.4531-0.89062 1.4375-0.89062 3.8281 0 2.5781 0.9375 3.9375 0.95312 1.3594 2.5938 1.3594z"/>
    <path d="m346.23 355.47h-3.5625v-15.781h3.2188v3.7656q0.6875-2.2031 1.8906-3.2188 1.2031-1.0156 2.4688-1.0156 0.17188 0 0.46875 0.0156v3.8281q-2.7188 0-3.6094 1.7344-0.875 1.7344-0.875 3.3594z"/>
    <path d="m367.67 336.67v2.7344h-1.0938q-0.71875 0-1.2656 0.17187-0.53125 0.17188-1.0469 1.1094 1.875 1.5312 1.875 3.4062 0 2.0938-1.7656 3.4688-1.75 1.375-4.6406 1.375-1.25 0-2.9219-0.40625-1.0938 0.5-1.0938 1.5469 0 0.57813 0.53125 1.0625 0.53125 0.48438 1.6094 0.48438h4.6875q2.4062 0 3.7656 1.25 1.375 1.2344 1.375 3.0781 0 2.2344-2.0781 3.7031-2.0625 1.4688-6.125 1.4688-7.6406 0-7.6406-4.2656 0-2.1094 2.2969-3.2031-1.4688-1.25-1.4688-2.6094 0-2.0625 2.5156-3.2812-2.1875-1.3281-2.1875-3.6562 0-1.9688 1.6094-3.3594 1.6094-1.3906 4.8906-1.3906 1.5 0 3.0469 0.32813 0.71875-3.0156 3.7969-3.0156zm-8.0938 10.156q2.9062 0 2.9062-2.7344 0-1.0469-0.73438-1.7656-0.71875-0.71875-2.1094-0.71875-1.4062 0-2.1875 0.75-0.76563 0.75-0.76563 1.875 0 1.1562 0.76563 1.875 0.76562 0.71875 2.125 0.71875zm-3.9062 7.7812q-0.76563 0.70313-0.76563 1.3594 0 1.0781 1.2812 1.8906 1.2812 0.82813 4.0781 0.82813 4.1094 0 4.1094-2.1094 0-0.78125-0.71875-1.1719-0.71875-0.40625-1.6406-0.40625h-3.7812q-1.0781 0-2.5625-0.39063z"/>
    <path d="m379.88 350.44 3.2188 0.4375q-0.625 2.1406-2.4375 3.5312-1.8125 1.3906-4.5469 1.3906-3.2812 0-5.2812-2.2031-2-2.2031-2-5.9688 0-3.5781 2.0156-5.9219 2.0156-2.3438 5.4688-2.3438 3.375 0 5.2188 2.3125t1.8438 5.9375l-0.0156 0.40625h-10.828q0 1.6094 0.29687 2.5781 0.3125 0.96875 1.2188 1.6875t2.2656 0.71875q2.6406 0 3.5625-2.5625zm-0.21875-4.7188q-0.0156-1.7031-1.0312-2.7812-1-1.0781-2.4844-1.0781-1.4688 0-2.4531 1.0156-0.98438 1-1.1562 2.8438z"/>
    <path d="m392.26 345.89v2.9219h-7.8438v-2.9219z"/>
    <path d="m403.45 349.67 3.0625 0.3125q-0.59375 2.9688-2.2969 4.3906-1.7031 1.4219-4.1094 1.4219-3.2656 0-5.0312-2.375-1.75-2.3906-1.75-5.8438 0-3.5625 1.9219-5.8906 1.9219-2.3281 5.125-2.3281 5.1562 0 6.1406 5.4375l-3.0625 0.42188q-0.40625-2.9375-2.8906-2.9375-1.8125 0-2.6406 1.5938-0.8125 1.5781-0.8125 3.8281 0 2.3906 0.84375 3.6875 0.85937 1.2969 2.3906 1.2969 2.3438 0 3.1094-3.0156z"/>
    <path d="m412.79 355.47h-3.5625v-21.328h3.5625z"/>
    <path d="m420.62 337.84h-3.5625v-3.7031h3.5625zm0 17.625h-3.5625v-15.781h3.5625z"/>
    <path d="m434.93 350.44 3.2188 0.4375q-0.625 2.1406-2.4375 3.5312-1.8125 1.3906-4.5469 1.3906-3.2812 0-5.2812-2.2031-2-2.2031-2-5.9688 0-3.5781 2.0156-5.9219 2.0156-2.3438 5.4688-2.3438 3.375 0 5.2188 2.3125t1.8438 5.9375l-0.0156 0.40625h-10.828q0 1.6094 0.29688 2.5781 0.3125 0.96875 1.2188 1.6875t2.2656 0.71875q2.6406 0 3.5625-2.5625zm-0.21875-4.7188q-0.0156-1.7031-1.0312-2.7812-1-1.0781-2.4844-1.0781-1.4688 0-2.4531 1.0156-0.98437 1-1.1562 2.8438z"/>
    <path d="m454.74 355.47h-3.5625v-9.8594q0-1.5625-0.71875-2.3438-0.71875-0.79687-1.7344-0.79687-1.3906 0-2.4375 1.2188-1.0469 1.2188-1.0469 3.6719v8.1094h-3.5625v-15.781h3.25v3.6562q1.7031-3.9844 4.7812-3.9844 2.0781 0 3.5469 1.3125 1.4844 1.3125 1.4844 4.6094z"/>
    <path d="m466.32 352.69v2.7812q-1.5938 0.34375-2.4688 0.34375-1.4375 0-2.4688-0.5625-1.0312-0.57813-1.5156-1.5625-0.46875-1-0.46875-3.0625v-8.1719h-1.9688v-2.7656h2.1719l0.32812-4.1094 2.9219-0.26562v4.375h3.1719v2.7656h-3.1719v7.7031q0 1.4844 0.53125 2.0312 0.54687 0.53125 2.0469 0.53125 0.42188 0 0.89063-0.0312z"/>
    <path d="m472.96 351.37v4.0938h-3.8594v-4.0938z"/>
    <path d="m484.34 352.69v2.7812q-1.5938 0.34375-2.4688 0.34375-1.4375 0-2.4688-0.5625-1.0312-0.57813-1.5156-1.5625-0.46875-1-0.46875-3.0625v-8.1719h-1.9688v-2.7656h2.1719l0.32813-4.1094 2.9219-0.26562v4.375h3.1719v2.7656h-3.1719v7.7031q0 1.4844 0.53125 2.0312 0.54688 0.53125 2.0469 0.53125 0.42187 0 0.89062-0.0312z"/>
    <path d="m492.93 355.79q-3.5 0-5.3438-2.5156-1.8438-2.5156-1.8438-5.7656 0-3.5 2.0312-5.8281 2.0469-2.3281 5.3906-2.3281 3.1719 0 5.2031 2.2656 2.0469 2.2656 2.0469 5.8906 0 3.7344-2.125 6.0156-2.1094 2.2656-5.3594 2.2656zm0.125-2.9375q3.5938 0 3.5938-5.3594 0-2.4219-0.85937-3.8125-0.85938-1.4062-2.6406-1.4062-1.8438 0-2.7344 1.4531-0.89063 1.4375-0.89063 3.8281 0 2.5781 0.9375 3.9375 0.95313 1.3594 2.5938 1.3594z"/>
    <path d="m527.24 355.47h-3.7344v-9.8281q0-3.0625-2.7188-3.0625-1.5781 0-2.5312 1.1562-0.9375 1.1562-0.9375 3.4531v8.2812h-3.7812v-9.8281q0-3.1094-2.5469-3.1094-1.5469 0-2.6094 1.25-1.0469 1.25-1.0469 3.4062v8.2812h-3.6719v-15.781h3.4531v3.3594q1.6875-3.6875 5.2656-3.6875 3.4844 0 4.5312 3.6875 1.9062-3.6875 5.2656-3.6875 2.2812 0 3.6719 1.4219 1.3906 1.4219 1.3906 3.5312z"/>
    <path d="m535.07 355.47h-3.5625v-21.328h3.5625z"/>
   </g>
   <path d="m67.373 270.09h1.6118l-2.1491-2.1491v1.6118c0 0.2955 0.24177 0.53727 0.53727 0.53727z" fill="#b0b7bd" stroke-width=".01679"/>
   <path transform="matrix(.01679 0 0 .01679 60.926 267.94)" d="m480 128v96l-96-96z" fill="#cad1d8"/>
   <path d="m63.075 285.52c-0.2955 0-0.53727 0.24178-0.53727 0.53728v7.5218c0 0.2955 0.24177 0.53727 0.53727 0.53727h5.3727c0.2955 0 0.53727-0.24177 0.53727-0.53727v-5.91l-2.1491-2.1491z" fill="#e2e5e7" stroke-width=".01679"/>
   <g transform="matrix(.21167 0 0 .21167 14.758 216.83)" fill="#fff" style="white-space:pre" aria-label="forge-common.toml">
    <path d="m319.93 355.47h-3.4375v-13.016h-2.3438v-2.7656h2.3438v-0.78125q0-2.3125 1.125-3.7188t4.5469-1.4062q0.5 0 1.2656 0.0312v2.7969q-0.67187-0.0469-0.92187-0.0469-1.3125 0-1.8438 0.35937-0.53125 0.34375-0.64063 0.82813-0.0937 0.46875-0.0937 1.9375h3.5v2.7656h-3.5z"/>
    <path d="m331.92 355.79q-3.5 0-5.3438-2.5156-1.8438-2.5156-1.8438-5.7656 0-3.5 2.0312-5.8281 2.0469-2.3281 5.3906-2.3281 3.1719 0 5.2031 2.2656 2.0469 2.2656 2.0469 5.8906 0 3.7344-2.125 6.0156-2.1094 2.2656-5.3594 2.2656zm0.125-2.9375q3.5938 0 3.5938-5.3594 0-2.4219-0.85938-3.8125-0.85937-1.4062-2.6406-1.4062-1.8438 0-2.7344 1.4531-0.89062 1.4375-0.89062 3.8281 0 2.5781 0.9375 3.9375 0.95312 1.3594 2.5938 1.3594z"/>
    <path d="m346.23 355.47h-3.5625v-15.781h3.2188v3.7656q0.6875-2.2031 1.8906-3.2188 1.2031-1.0156 2.4688-1.0156 0.17188 0 0.46875 0.0156v3.8281q-2.7188 0-3.6094 1.7344-0.875 1.7344-0.875 3.3594z"/>
    <path d="m367.67 336.67v2.7344h-1.0938q-0.71875 0-1.2656 0.17187-0.53125 0.17188-1.0469 1.1094 1.875 1.5312 1.875 3.4062 0 2.0938-1.7656 3.4688-1.75 1.375-4.6406 1.375-1.25 0-2.9219-0.40625-1.0938 0.5-1.0938 1.5469 0 0.57813 0.53125 1.0625 0.53125 0.48438 1.6094 0.48438h4.6875q2.4062 0 3.7656 1.25 1.375 1.2344 1.375 3.0781 0 2.2344-2.0781 3.7031-2.0625 1.4688-6.125 1.4688-7.6406 0-7.6406-4.2656 0-2.1094 2.2969-3.2031-1.4688-1.25-1.4688-2.6094 0-2.0625 2.5156-3.2812-2.1875-1.3281-2.1875-3.6562 0-1.9688 1.6094-3.3594 1.6094-1.3906 4.8906-1.3906 1.5 0 3.0469 0.32813 0.71875-3.0156 3.7969-3.0156zm-8.0938 10.156q2.9062 0 2.9062-2.7344 0-1.0469-0.73438-1.7656-0.71875-0.71875-2.1094-0.71875-1.4062 0-2.1875 0.75-0.76563 0.75-0.76563 1.875 0 1.1562 0.76563 1.875 0.76562 0.71875 2.125 0.71875zm-3.9062 7.7812q-0.76563 0.70313-0.76563 1.3594 0 1.0781 1.2812 1.8906 1.2812 0.82813 4.0781 0.82813 4.1094 0 4.1094-2.1094 0-0.78125-0.71875-1.1719-0.71875-0.40625-1.6406-0.40625h-3.7812q-1.0781 0-2.5625-0.39063z"/>
    <path d="m379.88 350.44 3.2188 0.4375q-0.625 2.1406-2.4375 3.5312-1.8125 1.3906-4.5469 1.3906-3.2812 0-5.2812-2.2031-2-2.2031-2-5.9688 0-3.5781 2.0156-5.9219 2.0156-2.3438 5.4688-2.3438 3.375 0 5.2188 2.3125t1.8438 5.9375l-0.0156 0.40625h-10.828q0 1.6094 0.29687 2.5781 0.3125 0.96875 1.2188 1.6875t2.2656 0.71875q2.6406 0 3.5625-2.5625zm-0.21875-4.7188q-0.0156-1.7031-1.0312-2.7812-1-1.0781-2.4844-1.0781-1.4688 0-2.4531 1.0156-0.98438 1-1.1562 2.8438z"/>
    <path d="m392.26 345.89v2.9219h-7.8438v-2.9219z"/>
    <path d="m403.45 349.67 3.0625 0.3125q-0.59375 2.9688-2.2969 4.3906-1.7031 1.4219-4.1094 1.4219-3.2656 0-5.0312-2.375-1.75-2.3906-1.75-5.8438 0-3.5625 1.9219-5.8906 1.9219-2.3281 5.125-2.3281 5.1562 0 6.1406 5.4375l-3.0625 0.42188q-0.40625-2.9375-2.8906-2.9375-1.8125 0-2.6406 1.5938-0.8125 1.5781-0.8125 3.8281 0 2.3906 0.84375 3.6875 0.85937 1.2969 2.3906 1.2969 2.3438 0 3.1094-3.0156z"/>
    <path d="m415.42 355.79q-3.5 0-5.3438-2.5156-1.8438-2.5156-1.8438-5.7656 0-3.5 2.0312-5.8281 2.0469-2.3281 5.3906-2.3281 3.1719 0 5.2031 2.2656 2.0469 2.2656 2.0469 5.8906 0 3.7344-2.125 6.0156-2.1094 2.2656-5.3594 2.2656zm0.125-2.9375q3.5938 0 3.5938-5.3594 0-2.4219-0.85938-3.8125-0.85937-1.4062-2.6406-1.4062-1.8438 0-2.7344 1.4531-0.89062 1.4375-0.89062 3.8281 0 2.5781 0.9375 3.9375 0.95312 1.3594 2.5938 1.3594z"/>
    <path d="m449.73 355.47h-3.7344v-9.8281q0-3.0625-2.7188-3.0625-1.5781 0-2.5312 1.1562-0.9375 1.1562-0.9375 3.4531v8.2812h-3.7812v-9.8281q0-3.1094-2.5469-3.1094-1.5469 0-2.6094 1.25-1.0469 1.25-1.0469 3.4062v8.2812h-3.6719v-15.781h3.4531v3.3594q1.6875-3.6875 5.2656-3.6875 3.4844 0 4.5312 3.6875 1.9062-3.6875 5.2656-3.6875 2.2812 0 3.6719 1.4219 1.3906 1.4219 1.3906 3.5312z"/>
    <path d="m477.57 355.47h-3.7344v-9.8281q0-3.0625-2.7188-3.0625-1.5781 0-2.5312 1.1562-0.9375 1.1562-0.9375 3.4531v8.2812h-3.7812v-9.8281q0-3.1094-2.5469-3.1094-1.5469 0-2.6094 1.25-1.0469 1.25-1.0469 3.4062v8.2812h-3.6719v-15.781h3.4531v3.3594q1.6875-3.6875 5.2656-3.6875 3.4844 0 4.5312 3.6875 1.9062-3.6875 5.2656-3.6875 2.2812 0 3.6719 1.4219 1.3906 1.4219 1.3906 3.5312z"/>
    <path d="m488.03 355.79q-3.5 0-5.3438-2.5156-1.8438-2.5156-1.8438-5.7656 0-3.5 2.0312-5.8281 2.0469-2.3281 5.3906-2.3281 3.1719 0 5.2031 2.2656 2.0469 2.2656 2.0469 5.8906 0 3.7344-2.125 6.0156-2.1094 2.2656-5.3594 2.2656zm0.125-2.9375q3.5938 0 3.5938-5.3594 0-2.4219-0.85937-3.8125-0.85938-1.4062-2.6406-1.4062-1.8438 0-2.7344 1.4531-0.89063 1.4375-0.89063 3.8281 0 2.5781 0.9375 3.9375 0.95313 1.3594 2.5938 1.3594z"/>
    <path d="m511.84 355.47h-3.5625v-9.8594q0-1.5625-0.71875-2.3438-0.71875-0.79687-1.7344-0.79687-1.3906 0-2.4375 1.2188-1.0469 1.2188-1.0469 3.6719v8.1094h-3.5625v-15.781h3.25v3.6562q1.7031-3.9844 4.7812-3.9844 2.0781 0 3.5469 1.3125 1.4844 1.3125 1.4844 4.6094z"/>
    <path d="m519.74 351.37v4.0938h-3.8594v-4.0938z"/>
    <path d="m531.12 352.69v2.7812q-1.5938 0.34375-2.4688 0.34375-1.4375 0-2.4688-0.5625-1.0312-0.57813-1.5156-1.5625-0.46875-1-0.46875-3.0625v-8.1719h-1.9688v-2.7656h2.1719l0.32813-4.1094 2.9219-0.26562v4.375h3.1719v2.7656h-3.1719v7.7031q0 1.4844 0.53125 2.0312 0.54688 0.53125 2.0469 0.53125 0.42187 0 0.89062-0.0312z"/>
    <path d="m539.71 355.79q-3.5 0-5.3438-2.5156-1.8438-2.5156-1.8438-5.7656 0-3.5 2.0312-5.8281 2.0469-2.3281 5.3906-2.3281 3.1719 0 5.2031 2.2656 2.0469 2.2656 2.0469 5.8906 0 3.7344-2.125 6.0156-2.1094 2.2656-5.3594 2.2656zm0.125-2.9375q3.5938 0 3.5938-5.3594 0-2.4219-0.85937-3.8125-0.85938-1.4062-2.6406-1.4062-1.8438 0-2.7344 1.4531-0.89063 1.4375-0.89063 3.8281 0 2.5781 0.9375 3.9375 0.95313 1.3594 2.5938 1.3594z"/>
    <path d="m574.03 355.47h-3.7344v-9.8281q0-3.0625-2.7188-3.0625-1.5781 0-2.5312 1.1562-0.9375 1.1562-0.9375 3.4531v8.2812h-3.7812v-9.8281q0-3.1094-2.5469-3.1094-1.5469 0-2.6094 1.25-1.0469 1.25-1.0469 3.4062v8.2812h-3.6719v-15.781h3.4531v3.3594q1.6875-3.6875 5.2656-3.6875 3.4844 0 4.5312 3.6875 1.9062-3.6875 5.2656-3.6875 2.2812 0 3.6719 1.4219 1.3906 1.4219 1.3906 3.5312z"/>
    <path d="m581.85 355.47h-3.5625v-21.328h3.5625z"/>
   </g>
   <path d="m67.373 287.67h1.6118l-2.1491-2.1491v1.6118c0 0.2955 0.24177 0.53727 0.53727 0.53727z" fill="#b0b7bd" stroke-width=".01679"/>
   <path transform="matrix(.01679 0 0 .01679 60.926 285.52)" d="m384 128h96v96z" fill="#cad1d8"/>
  </g>
 </g>
</svg>
